<svg xmlns="http://www.w3.org/2000/svg" width="43.75pt" height="50pt" viewBox="0 0 43.75 50"><path d="M40.625 15.625h-37.5v-4.688h37.5zm-5.211 7.813h-27.082l-.52-4.688h28.125zm-1.91 17.188h-23.262l-1.734-15.625h26.734zm-.691 6.25h-21.875l-.52-4.688h22.914zm-25-43.75h28.125l1.563 4.688h-31.25zm32.984 4.723l-1.898-5.711c-.422-1.277-1.617-2.137-2.961-2.137h-28.125c-1.348 0-2.539.859-2.965 2.137l-1.914 5.715c-1.633.102-2.934 1.43-2.934 3.086v4.688c0 1.727 1.398 3.125 3.125 3.125h1.617l-.035.344 3.125 28.125c.176 1.582 1.512 2.781 3.105 2.781h21.875c1.594 0 2.93-1.199 3.102-2.781l3.125-28.125-.031-.344h1.617c1.727 0 3.125-1.398 3.125-3.125v-4.688c0-1.664-1.313-2.996-2.953-3.09" /></svg>