<svg xmlns="http://www.w3.org/2000/svg" width="50pt" height="40.625pt" viewBox="0 0 50 40.625"><defs><clipPath id="a"><path d="M0 0h50v40.625h-50zm0 0"/></clipPath></defs><g><path d="M42.188 23.438h-6.25v-9.375h1.563l4.688 7.031zm-3.387-10.242c-.293-.434-.777-.695-1.301-.695h-1.563c-.863 0-1.563.699-1.563 1.563v9.375c0 .863.699 1.563 1.563 1.563h6.25c.863 0 1.563-.699 1.563-1.563v-2.344c0-.309-.094-.609-.262-.867zm0 0" data-fill="rgb(0.392151%,0%,0.784302%)"/><path d="M46.875 31.25c0 .863-.699 1.563-1.563 1.563h-1.785c-.699-2.691-3.125-4.688-6.027-4.688-2.906 0-5.332 1.996-6.031 4.688h-8.25c-.699-2.691-3.125-4.688-6.027-4.688-2.906 0-5.332 1.996-6.031 4.688h-1.785c-.863 0-1.563-.699-1.563-1.563v-4.688h20.313c2.586 0 4.688-2.102 4.688-4.688v-10.938h6.25c.523 0 1.008.262 1.301.695l6.25 9.375c.168.258.262.559.262.867zm-9.375 6.25c-1.727 0-3.125-1.398-3.125-3.125s1.398-3.125 3.125-3.125 3.125 1.398 3.125 3.125-1.398 3.125-3.125 3.125m-20.313 0c-1.727 0-3.125-1.398-3.125-3.125s1.398-3.125 3.125-3.125 3.125 1.398 3.125 3.125-1.398 3.125-3.125 3.125m-12.5-14.063c-.863 0-1.563-.699-1.563-1.563v-17.188c0-.863.699-1.563 1.563-1.563h23.438c.863 0 1.563.699 1.563 1.563v17.188c0 .863-.699 1.563-1.563 1.563zm44.527-4.164l-6.25-9.375c-.875-1.305-2.332-2.086-3.902-2.086h-6.25v-3.125c0-2.586-2.102-4.688-4.688-4.688h-23.438c-2.586 0-4.688 2.102-4.688 4.688v17.188c0 2.586 2.102 4.688 4.688 4.688v4.688c0 2.586 2.102 4.688 4.688 4.688h1.785c.699 2.691 3.125 4.688 6.027 4.688s5.328-1.996 6.027-4.688h8.254c.699 2.691 3.125 4.688 6.027 4.688s5.332-1.996 6.027-4.688h1.789c2.586 0 4.688-2.102 4.688-4.688v-9.375c0-.93-.273-1.828-.785-2.602" data-fill="rgb(0.392151%,0%,0.784302%)" clip-path="url(#a)"/></g></svg>