<?xml version="1.0" encoding="UTF-8"?><!DOCTYPE svg PUBLIC "-//W3C//DTD SVG 1.1//EN" "http://www.w3.org/Graphics/SVG/1.1/DTD/svg11.dtd"><svg xmlns="http://www.w3.org/2000/svg" xmlns:xlink="http://www.w3.org/1999/xlink"><defs><clipPath id="a"><path d="M0 0h394.383v305.23h-394.383zm0 0"/></clipPath><clipPath id="a"><path d="M0 0h50v40.625h-50zm0 0"/></clipPath><clipPath id="a"><path d="M0 0h47.527v50h-47.527zm0 0"/></clipPath><clipPath id="a"><path d="M0 0h283.746v266.672h-283.746zm0 0"/></clipPath></defs><symbol id="arrow-down" viewBox="0 0 8 5">
    <path stroke-linejoin="round" stroke-linecap="round" stroke-width="2" stroke="#ffffff" fill="none" opacity="0.7" fill-rule="evenodd" d="M 1 1 C 1 1 4 4 4 4 C 4 4 7 1 7 1"/>
</symbol><symbol id="cafe" viewBox="0 0 43.75 50"><path d="M40.625 15.625h-37.5v-4.688h37.5zm-5.211 7.813h-27.082l-.52-4.688h28.125zm-1.91 17.188h-23.262l-1.734-15.625h26.734zm-.691 6.25h-21.875l-.52-4.688h22.914zm-25-43.75h28.125l1.563 4.688h-31.25zm32.984 4.723l-1.898-5.711c-.422-1.277-1.617-2.137-2.961-2.137h-28.125c-1.348 0-2.539.859-2.965 2.137l-1.914 5.715c-1.633.102-2.934 1.43-2.934 3.086v4.688c0 1.727 1.398 3.125 3.125 3.125h1.617l-.035.344 3.125 28.125c.176 1.582 1.512 2.781 3.105 2.781h21.875c1.594 0 2.93-1.199 3.102-2.781l3.125-28.125-.031-.344h1.617c1.727 0 3.125-1.398 3.125-3.125v-4.688c0-1.664-1.313-2.996-2.953-3.09"/></symbol><symbol id="children" viewBox="0 0 394.382 305.232"><g><path d="M343.957 101.605c-18.918-52.184-65.992-90.199-120.973-99.41-.914-.336-1.895-.59-3-.656l-2.125-.059c-6.809-.91-13.684-1.48-20.676-1.48-65.688 0-124.953 41.422-146.777 101.605-27.848.324-50.406 23.078-50.406 51.012 0 27.926 22.559 50.688 50.41 51.012 21.824 60.18 81.086 101.602 146.781 101.602 25.574 0 50.133-6.352 71.918-17.566-5-4.371-9.84-9.168-14.145-14.324-17.77 8.188-37.398 12.816-57.781 12.816-59.984 0-113.824-39.215-130.941-95.355l-2.398-7.867-8.125 1.215c-1.828.277-3.332.391-4.707.391-17.609 0-31.934-14.32-31.934-31.93 0-17.605 14.324-31.938 31.934-31.938 1.375 0 2.879.133 4.719.395l8.121 1.199 2.391-7.859c11.605-38.059 40.113-68.289 75.949-83.836-8 17.719 2.863 39.555 20.969 48.078 22.566 10.621 59.07 11.996 74.465-11.094 6.941-10.406.777-23.566-7.613-30.688-11.766-9.973-28.824-11.387-42.785-5.848-11.297 4.484-6.379 22.945 5.074 18.406 8.301-3.285 15.852-3.535 23.816.832 10.922 6.008.859 12.863-6.777 15.059-14.23 4.094-35.227.758-46.355-9.23-14.039-12.609 4.047-26.918 15.238-30.832 12.145-4.254 25.48-5.195 38.32-4.73 51.918 7.391 96.344 43.879 111.59 93.891l2.398 7.859 8.125-1.199c1.824-.27 3.336-.395 4.711-.395 17.609 0 31.934 14.328 31.934 31.941 0 17.598-14.324 31.934-31.934 31.934-1.375 0-2.887-.129-4.699-.398l-8.137-1.211-2.398 7.867c-.852 2.789-1.863 5.523-2.895 8.23 2.895-.68 5.902-1.07 8.996-1.07 6.793 0 13.176 1.707 18.777 4.715 23.516-4.531 41.371-25.23 41.371-50.066-.008-27.938-22.566-50.695-50.426-51.016" clip-path="url(#a)"/><path d="M156.895 145.988c-16.406 0-16.406 25.441 0 25.441 16.402 0 16.41-25.441 0-25.441"/><path d="M237.473 144.398c-16.41 0-16.41 25.445 0 25.445 16.402-.004 16.41-25.445 0-25.445"/><path d="M197.184 235.309c20.688 0 37.527-16.836 37.527-37.52 0-5.285-4.277-9.543-9.547-9.543-5.262 0-9.535 4.266-9.535 9.543 0 10.168-8.273 18.438-18.438 18.438-10.164 0-18.445-8.27-18.445-18.438 0-5.285-4.27-9.543-9.539-9.543-5.27 0-9.543 4.266-9.543 9.543-.004 20.684 16.832 37.52 37.52 37.52"/><path d="M306.801 280.219c-45.563-27.023-32.801-50.285-16.773-50.285 7.496 0 11.191 5.047 16.773 10.34 5.57-5.281 9.273-10.336 16.777-10.336 14.113 0 30.652 22.074-16.777 50.281m0-64.91c-38.477-22.074-91.215 39.777 0 86.555 92.172-47.273 37.297-107.934 0-86.555"/></g></symbol><symbol id="fb" viewBox="0 0 40 40">
<circle fill="#ffb39c" cx="20" cy="20" r="20"/>
<path fill="#FFFFFF" d="M25.6,8.9l-2.9,0c-3.2,0-5.3,2.1-5.3,5.5v2.5h-2.9c-0.3,0-0.5,0.2-0.5,0.5V21c0,0.2,0.2,0.5,0.5,0.5h2.9v9.2
	c0,0.2,0.2,0.5,0.5,0.5h3.8c0.3,0,0.5-0.2,0.5-0.5v-9.2h3.4c0.3,0,0.5-0.2,0.5-0.5l0-3.6c0-0.1,0-0.2-0.1-0.3
	c-0.1-0.1-0.2-0.1-0.3-0.1H22v-2.1c0-1,0.2-1.5,1.6-1.5l1.9,0c0.3,0,0.5-0.2,0.5-0.5V9.4C26,9.1,25.8,8.9,25.6,8.9z"/>
</symbol><symbol id="garage" viewBox="0 0 50 40.625"><g><path d="M42.188 23.438h-6.25v-9.375h1.563l4.688 7.031zm-3.387-10.242c-.293-.434-.777-.695-1.301-.695h-1.563c-.863 0-1.563.699-1.563 1.563v9.375c0 .863.699 1.563 1.563 1.563h6.25c.863 0 1.563-.699 1.563-1.563v-2.344c0-.309-.094-.609-.262-.867zm0 0" data-fill="rgb(0.392151%,0%,0.784302%)"/><path d="M46.875 31.25c0 .863-.699 1.563-1.563 1.563h-1.785c-.699-2.691-3.125-4.688-6.027-4.688-2.906 0-5.332 1.996-6.031 4.688h-8.25c-.699-2.691-3.125-4.688-6.027-4.688-2.906 0-5.332 1.996-6.031 4.688h-1.785c-.863 0-1.563-.699-1.563-1.563v-4.688h20.313c2.586 0 4.688-2.102 4.688-4.688v-10.938h6.25c.523 0 1.008.262 1.301.695l6.25 9.375c.168.258.262.559.262.867zm-9.375 6.25c-1.727 0-3.125-1.398-3.125-3.125s1.398-3.125 3.125-3.125 3.125 1.398 3.125 3.125-1.398 3.125-3.125 3.125m-20.313 0c-1.727 0-3.125-1.398-3.125-3.125s1.398-3.125 3.125-3.125 3.125 1.398 3.125 3.125-1.398 3.125-3.125 3.125m-12.5-14.063c-.863 0-1.563-.699-1.563-1.563v-17.188c0-.863.699-1.563 1.563-1.563h23.438c.863 0 1.563.699 1.563 1.563v17.188c0 .863-.699 1.563-1.563 1.563zm44.527-4.164l-6.25-9.375c-.875-1.305-2.332-2.086-3.902-2.086h-6.25v-3.125c0-2.586-2.102-4.688-4.688-4.688h-23.438c-2.586 0-4.688 2.102-4.688 4.688v17.188c0 2.586 2.102 4.688 4.688 4.688v4.688c0 2.586 2.102 4.688 4.688 4.688h1.785c.699 2.691 3.125 4.688 6.027 4.688s5.328-1.996 6.027-4.688h8.254c.699 2.691 3.125 4.688 6.027 4.688s5.332-1.996 6.027-4.688h1.789c2.586 0 4.688-2.102 4.688-4.688v-9.375c0-.93-.273-1.828-.785-2.602" data-fill="rgb(0.392151%,0%,0.784302%)" clip-path="url(#a)"/></g></symbol><symbol id="insta" viewBox="0 0 1000 1000">
<circle fill="#e0e195" cx="500" cy="500" r="500"/>
<path fill="#FFFFFF" d="M661.2,233.8H338.2c-56.1,0-101.8,45.6-101.8,101.8v107.5v215.6c0,56.1,45.7,101.8,101.8,101.8h323.1
	c56.1,0,101.8-45.6,101.8-101.8V443.1V335.6C763,279.5,717.4,233.8,661.2,233.8z M690.4,294.5l11.6,0v11.6v77.7l-89,0.3l-0.3-89.2
	L690.4,294.5z M424.6,443.1c16.9-23.3,44.2-38.6,75.2-38.6s58.3,15.3,75.1,38.6c11,15.2,17.5,33.9,17.5,54
	c0,51.1-41.6,92.7-92.7,92.7c-51.1,0-92.7-41.6-92.7-92.7C407,476.9,413.6,458.3,424.6,443.1z M711.7,658.6
	c0,27.8-22.6,50.5-50.5,50.5H338.2c-27.8,0-50.5-22.6-50.5-50.5V443.1h78.6c-6.8,16.7-10.6,34.9-10.6,54c0,79.4,64.6,144,144,144
	c79.4,0,144-64.6,144-144c0-19.1-3.8-37.3-10.6-54h78.6V658.6z"/>
</symbol><symbol id="kitchen" viewBox="0 0 47.529 50.0002"><path d="M36.184 27.426c-.852.109-1.492.832-1.492 1.695v11.406h-3.273v-10.641c0-.785-.637-1.422-1.422-1.422-.785 0-1.422.637-1.422 1.422v10.641h-3.387v-10.641c0-.785-.637-1.422-1.422-1.422-.785 0-1.422.637-1.422 1.422v10.641h-3.391v-10.641c0-.785-.637-1.422-1.422-1.422-.785 0-1.422.637-1.422 1.422v10.641h-3.273v-11.242l.008-.059c.055-.898-.598-1.688-1.492-1.801-4.527-.57-7.938-4.445-7.938-9.012 0-5.016 4.078-9.094 9.09-9.094.438 0 .887.035 1.328.098.734.109 1.449-.27 1.777-.93 1.543-3.133 4.668-5.074 8.156-5.074 3.484 0 6.609 1.941 8.156 5.074.324.66 1.043 1.039 1.777.93.441-.063.887-.098 1.328-.098 5.012 0 9.09 4.078 9.09 9.094 0 4.563-3.41 8.438-7.934 9.012m-1.492 19.16h-21.855v-3.215h21.855zm.336-40.676c-.211 0-.418.004-.629.016-2.27-3.684-6.242-5.926-10.633-5.926-4.391 0-8.367 2.242-10.637 5.926-.207-.012-.418-.016-.625-.016-6.895 0-12.504 5.609-12.504 12.504 0 5.766 3.957 10.73 9.426 12.113v17.766c0 .945.762 1.707 1.707 1.707h25.266c.941 0 1.707-.762 1.707-1.707v-17.762c5.465-1.387 9.422-6.352 9.422-12.117 0-6.895-5.609-12.504-12.5-12.504" clip-path="url(#a)"/></symbol><symbol id="leaves" viewBox="0 0 74 78">
    <path fill="#e7eca1" fill-rule="evenodd" d="M 71.5 0.03 C 71.5 0.03 78.75 27.48 66.32 49 C 53.89 70.52 26.5 77.97 26.5 77.97 C 26.5 77.97 19.25 50.52 31.68 29 C 44.11 7.48 71.5 0.03 71.5 0.03 Z"/>
    <path fill="#6eb393" opacity="0.1" fill-rule="evenodd" d="M 71.5 0.03 C 71.5 0.03 78.75 27.48 66.32 49 C 53.89 70.52 26.5 77.97 26.5 77.97"/>
    <path fill="#ced649" opacity="0.7" fill-rule="evenodd" d="M 1.28 31 C 1.28 31 -3.14 47.55 4.44 60.53 C 12.01 73.51 28.72 78 28.72 78 C 28.72 78 33.14 61.45 25.56 48.47 C 17.99 35.49 1.28 31 1.28 31 Z"/>
</symbol><symbol id="living" viewBox="0 0 283.747 266.672"><g><path d="M239.832 78.871v1.926c-13.836 4.59-25.996 16.613-25.996 31.629v26.344l-56.887-3.574-22.211.012-71.699 3.723v-26.508c0-18.824-10.313-31.863-26-33.484v-.07c0-34.887 28.387-63.273 63.27-63.273h76.254c34.883.008 63.27 28.391 63.27 63.277m15.602 50.43c-1.148.316-2.285.637-3.641.816l-6.762.91v41.809c-.508-.152-1.023-.277-1.543-.402-1.91-.457-3.883-.727-5.922-.793-.297-.012-.594-.047-.891-.047h-196.477c-.301 0-.598.035-.898.047-.758.023-1.52.055-2.262.137v-40.746l-6.758-.91c-1.168-.156-2.406-.422-3.641-.77-1.801-.504-3.586-1.297-5.203-2.5-3.301-2.469-5.84-6.715-5.84-14.418 0-5.23 2.273-9.914 5.84-13.219 1.523-1.41 3.262-2.605 5.203-3.43 2.164-.914 4.539-1.422 7.035-1.422 1.242 0 2.34.16 3.363.406 9.563 2.223 10.398 13.832 10.398 17.664v42.938l87.703-4.57 21.313-.016 72.98 4.602v-42.965c0-5.922 4.57-11.305 10.398-14.625 1.652-.949 3.41-1.691 5.199-2.266 2.242-.719 4.535-1.176 6.719-1.176 1.285 0 2.504.16 3.68.426 7.547 1.703 12.715 8.586 12.715 17.645.004 5.23-1.836 13.848-12.711 16.875m-183.914 104.691l-4.676 9.07-4.715-9.07zm153.059 0l-4.676 9.07-4.707-9.07zm20.02-18.207c-2.117 1.535-4.684 2.469-7.477 2.559l-.445.047h-196.48c-7.477 0-13.563-6.086-13.563-13.563v-4.074c0-3.168 1.137-6.055 2.969-8.359.25-.313.496-.645.777-.934 1.008-1.066 2.199-1.934 3.504-2.629 1.895-1.008 4.023-1.633 6.316-1.633h196.465c.629 0 1.219.109 1.824.184 3.133.43 5.926 1.887 7.996 4.078.285.297.523.621.781.934 1.828 2.309 2.965 5.191 2.965 8.359v4.074c0 4.512-2.234 8.488-5.633 10.957m10.836-136.809v-.105c0-43.484-35.383-78.871-78.871-78.871h-76.25c-43.488 0-78.871 35.383-78.871 78.871v2.223c-12.531 4.906-21.441 17.086-21.441 31.332 0 16.164 7.715 27.402 21.438 31.68v34.355c-6.348 5.363-10.398 13.355-10.398 22.293v4.074c0 16.086 13.082 29.16 29.16 29.16h4.348l.246.473 12.957 24.938c1.379 2.723 3.676 7.273 9.109 7.273h.004c3.313 0 6.355-1.934 7.949-5.043l14.254-27.641h108.551l.57 1.113 12.625 24.297c1.285 2.539 3.684 7.273 9.117 7.273h.004c3.355 0 6.32-1.891 7.941-5.043l14.555-28.215c13.328-2.68 23.402-14.473 23.402-28.59v-4.07c0-6.156-1.93-11.863-5.199-16.574v-40.055c14.422-4.391 23.113-16.047 23.113-31.699 0-17.875-11.941-31.645-28.313-33.449" clip-path="url(#a)"/><path d="M110.703 68.461c10.063 0 10.063-15.598 0-15.598-10.059 0-10.059 15.598 0 15.598"/><path d="M165.305 67.598c10.059 0 10.059-15.598 0-15.598-10.063 0-10.063 15.598 0 15.598"/><path d="M110.703 110.063c10.063 0 10.063-15.602 0-15.602-10.059 0-10.059 15.602 0 15.602"/><path d="M165.305 109.195c10.059 0 10.059-15.598 0-15.598-10.063 0-10.063 15.598 0 15.598"/></g></symbol><symbol id="medicine" viewBox="0 0 49.9992 50"><g data-fill="rgb(0.392151%,0%,0.784302%)"><path d="M42.176 21.219l-2.207 2.207c-.309.309-.801.309-1.105 0l-2.766-2.762-2.234 5.609.184-.473c-4.703-4.695-9.48-5.289-13.793-5.816-1.387-.172-2.73-.352-4.051-.633l13.266-5.316-2.68-2.68c-.305-.305-.305-.801 0-1.105l2.211-2.211c.305-.305.797-.305 1.105 0l12.066 12.074c.309.305.309.801.004 1.105m-16.145 24.668c-.195.488-.621.848-1.137.953-.117.027-.238.035-.359.035-.395-.008-.777-.168-1.063-.457l-19.891-19.668c-.363-.363-.523-.887-.43-1.395.098-.508.438-.934.91-1.141l9.715-3.891c6.547 2.176 13.094.078 19.641 7.066zm6.285-40.055c-.742-.738-1.719-1.145-2.762-1.145-1.047 0-2.027.406-2.77 1.145l-2.203 2.207c-.738.738-1.145 1.719-1.145 2.762 0 .738.199 1.441.578 2.055l-21.211 8.496c-1.418.625-2.437 1.906-2.723 3.422-.289 1.527.195 3.094 1.305 4.199l19.875 19.656c.855.855 1.992 1.34 3.195 1.371h.117c.316 0 .637-.035.953-.098 1.555-.32 2.828-1.395 3.402-2.855l8.348-20.898c.629.414 1.367.633 2.137.633 1.047 0 2.027-.406 2.762-1.145l2.199-2.199c.746-.742 1.152-1.723 1.152-2.77s-.41-2.031-1.145-2.762zm0 0"/><path d="M25.781 26.563c1.293 0 2.344 1.051 2.344 2.344s-1.051 2.344-2.344 2.344c-1.297 0-2.344-1.051-2.344-2.344s1.047-2.344 2.344-2.344m0 6.25c2.152 0 3.906-1.754 3.906-3.906 0-2.156-1.754-3.906-3.906-3.906-2.156 0-3.906 1.75-3.906 3.906 0 2.152 1.754 3.906 3.906 3.906"/><path d="M46.094 6.25c-1.293 0-2.344-1.051-2.344-2.344s1.051-2.344 2.344-2.344 2.344 1.051 2.344 2.344-1.051 2.344-2.344 2.344m0-6.25c-2.152 0-3.906 1.754-3.906 3.906 0 2.156 1.754 3.906 3.906 3.906s3.906-1.75 3.906-3.906c0-2.152-1.754-3.906-3.906-3.906"/><path d="M15.625 25c.863 0 1.563.699 1.563 1.563 0 .863-.699 1.563-1.563 1.563-.863 0-1.563-.699-1.563-1.563 0-.863.699-1.563 1.563-1.563m-3.125 1.563c0 1.723 1.402 3.125 3.125 3.125s3.125-1.402 3.125-3.125-1.402-3.125-3.125-3.125-3.125 1.402-3.125 3.125"/><path d="M20.313 34.375c.863 0 1.563.699 1.563 1.563 0 .863-.699 1.563-1.563 1.563-.863 0-1.563-.699-1.563-1.563 0-.863.699-1.563 1.563-1.563"/><path d="M45.313 10.938c.863 0 1.563.699 1.563 1.563 0 .863-.699 1.563-1.563 1.563-.863 0-1.563-.699-1.563-1.563 0-.863.699-1.563 1.563-1.563"/></g></symbol><symbol id="office" viewBox="0 0 49.9996 45.3123"><path d="M45.879 4.121c-5.488-5.496-14.395-5.496-19.883 0l-22.797 22.523c-4.266 4.266-4.266 11.207 0 15.469 4.262 4.266 11.203 4.266 15.465 0l22.797-22.527c3.051-3.051 3.051-7.996 0-11.047-3.055-3.051-8-3.051-11.047 0l-17.137 17.137c-.613.613-.613 1.598 0 2.211.609.609 1.598.609 2.207 0l17.141-17.137c1.828-1.828 4.797-1.828 6.625 0 1.828 1.828 1.828 4.801 0 6.629l-22.793 22.523c-3.055 3.055-7.996 3.055-11.047 0-3.055-3.051-3.055-7.996 0-11.047l22.57-22.305c4.273-4.273 11.199-4.273 15.465 0 4.277 4.273 4.277 11.195.004 15.465l-16.914 16.918c-.613.613-.613 1.598 0 2.207.609.613 1.598.613 2.211 0l17.133-17.137c5.496-5.488 5.496-14.395 0-19.883" data-fill="rgb(0.392151%,0%,0.784302%)"/></symbol><symbol id="ok" viewBox="0 0 40 40">
<circle fill="#cfd45a" cx="20" cy="20" r="20"/>
<g id="Forma_1">
	<g>
		<path fill-rule="evenodd" clip-rule="evenodd" fill="#FFFFFF" d="M26.2,22.3c0.4-0.5,0.4-1,0.1-1.6c-0.3-0.5-0.9-0.7-1.4-0.6
			c-0.3,0.1-0.6,0.2-0.8,0.4c-2.5,1.7-5.8,1.6-8.3-0.1c-0.1-0.1-0.2-0.2-0.4-0.2c-0.7-0.3-1.3-0.2-1.7,0.4c-0.5,0.7-0.4,1.3,0.2,1.8
			c0.1,0.1,0.3,0.3,0.5,0.4c1.3,1,2.8,1.5,4.5,1.6c-0.1,0.1-0.2,0.2-0.3,0.3c-1.2,1.3-2.5,2.5-3.7,3.8c-0.3,0.3-0.4,0.5-0.5,0.9
			c0,0.6,0.3,1.1,0.9,1.4c0.5,0.2,1,0.2,1.5-0.3c1-1,2-2,2.9-2.9c0.2-0.2,0.4-0.3,0.6,0c0.9,1,1.9,1.9,2.9,2.9
			c0.2,0.3,0.5,0.4,0.9,0.5c0.6,0,1.1-0.3,1.4-0.9c0.2-0.5,0.1-1.1-0.3-1.5c-1.3-1.3-2.5-2.6-3.8-3.8c-0.1-0.1-0.2-0.2-0.3-0.3
			c0.9-0.1,1.9-0.3,2.7-0.6C24.7,23.5,25.6,23,26.2,22.3z M20,20.1c3.1,0,5.6-2.5,5.6-5.5c0-3.1-2.4-5.7-5.5-5.7
			c-3.1,0-5.6,2.5-5.6,5.6C14.4,17.6,16.9,20.1,20,20.1z M20,11.8c1.5,0,2.7,1.2,2.7,2.7c0,1.5-1.2,2.7-2.7,2.7
			c-1.5,0-2.7-1.2-2.7-2.7C17.3,13,18.5,11.8,20,11.8z"/>
	</g>
</g>
</symbol><symbol id="rating-inactive-star" viewBox="0 0 126.7 126.7">
<g>
	<path fill="#E6E6E6" d="M121.2,44.2l-34.9-3.3c-2.2-0.2-4.1-1.6-5-3.7L68.8,6.9c-2-5-9.1-5-11.1,0L45.3,37.2c-0.8,2.1-2.8,3.5-5,3.7L5.4,44.2
		c-5.2,0.5-7.3,7-3.4,10.5l26.3,23.1c1.7,1.5,2.4,3.7,1.9,5.9l-7.9,32.4c-1.2,5.1,4.3,9.3,8.9,6.6l29.1-17.1c1.9-1.1,4.2-1.1,6.1,0
		l29.1,17.1c4.6,2.7,10.1-1.4,8.9-6.6l-7.8-32.4c-0.5-2.2,0.2-4.4,1.9-5.9l26.3-23.1C128.6,51.2,126.4,44.7,121.2,44.2z"/>
</g>
</symbol><symbol id="rating-star" viewBox="0 0 126.7 126.7">
<g>
	<path fill="#F8E572" d="M121.2,44.2l-34.9-3.3c-2.2-0.2-4.1-1.6-5-3.7L68.8,6.9c-2-5-9.1-5-11.1,0L45.3,37.2c-0.8,2.1-2.8,3.5-5,3.7L5.4,44.2
		c-5.2,0.5-7.3,7-3.4,10.5l26.3,23.1c1.7,1.5,2.4,3.7,1.9,5.9l-7.9,32.4c-1.2,5.1,4.3,9.3,8.9,6.6l29.1-17.1c1.9-1.1,4.2-1.1,6.1,0
		l29.1,17.1c4.6,2.7,10.1-1.4,8.9-6.6l-7.8-32.4c-0.5-2.2,0.2-4.4,1.9-5.9l26.3-23.1C128.6,51.2,126.4,44.7,121.2,44.2z"/>
</g>
</symbol><symbol id="ribbon_number" viewBox="0 0 65 40">
    <path fill="#ca575b" fill-rule="evenodd" d="M 0 0 C 0 0 60 0 60 0 C 60 0 60 40 60 40 C 60 40 49.08 35 28.63 35 C 9.1 35 0 40 0 40 C 0 40 0 0 0 0 Z"/>
    <path stroke-linejoin="miter" stroke-linecap="butt" stroke-dasharray="4,2" stroke-width="1" stroke="#ffffff" fill="none" opacity="0.3" fill-rule="evenodd" d="M 3 3 C 3 3 57 3 57 3 C 57 3 57 37 57 37 C 57 37 49.08 32 28.63 32 C 9.1 32 3 37 3 37 C 3 37 3 3 3 3 Z"/>
    <path fill="#ffffff" opacity="0.1" fill-rule="evenodd" d="M 0 0 C 0 0 60 0 60 0 C 60 0 60 40 60 40 C 60 40 0 0 0 0 Z"/>
    <path fill="#7d3031" fill-rule="evenodd" d="M 60 0 C 60 0 65 5 65 5 C 65 5 60 5 60 5 C 60 5 60 0 60 0 Z"/>
</symbol><symbol id="ribbon_text" viewBox="0 0 85 40">
    <path fill="#ca575b" fill-rule="evenodd" d="M 0 0 C 0 0 80 0 80 0 C 80 0 80 40 80 40 C 80 40 59.08 35 38.63 35 C 19.1 35 0 40 0 40 C 0 40 0 0 0 0 Z"/>
    <path stroke-linejoin="miter" stroke-linecap="butt" stroke-dasharray="4,2" stroke-width="1" stroke="#ffffff" fill="none" opacity="0.3" fill-rule="evenodd" d="M 3 3 C 3 3 77 3 77 3 C 77 3 77 37 77 37 C 77 37 59.08 32 38.63 32 C 19.1 32 3 37 3 37 C 3 37 3 3 3 3 Z"/>
    <path fill="#ffffff" opacity="0.1" fill-rule="evenodd" d="M 0 0 C 0 0 80 0 80 0 C 80 0 80 40 80 40 C 80 40 0 0 0 0 Z"/>
    <path fill="#7d3031" fill-rule="evenodd" d="M 80 0 C 80 0 85 5 85 5 C 85 5 80 5 80 5 C 80 5 80 0 80 0 Z"/>
</symbol><symbol id="rouble" viewBox="0 0 400 550">
<path transform="translate(-44,-473)" d="m75.949795,761.44891h49.710085v-249.89624c17.73062-4.20076 36.74661-7.00278 57.04803-8.40606 20.30116-1.4023 40.48496-2.10369 60.55146-2.10419 21.46178,5e-4 42.5784,2.10112 63.34991,6.30188 20.77101,4.20174 39.20666,11.90284 55.30701,23.10333 16.09973,11.20143 29.04883,26.36865 38.84735,45.50171 9.79782,19.13391 14.6969,43.63289 14.69726,73.49701-3.6e-4,29.39485-5.01694,53.89383-15.04974,73.49701-10.0335,19.60373-23.33508,35.47234-39.90479,47.6059-16.57031,12.134-35.47237,20.76792-56.70623,25.90179-21.23436,5.13427-42.81739,7.93629-64.74915,8.40607l-55.28564,0.68359v49.71008h116.18957v43.38684h-116.18957v98.01026h-58.10547v-98.01026h-49.710085v-43.38684h49.710085v-50.39367h-49.710085z
M244.64791,550.04755c-12.13396,4.4e-4,-23.68384,0.34936-34.64965,1.04675-10.96613,0.69828-19.71043,1.75215-26.23291,3.16162v202.98462h53.19214c13.99923,2.4e-4 27.99864-1.39899 41.99829-4.19769 13.99919-2.79822 26.59937-8.16371 37.80059-16.0965 11.2007-7.93227 20.30103-18.78075 27.30103-32.54547 6.99942-13.76414 10.26429-31.84731 9.79462-54.24957 0.46967-19.14026-2.2113-35.12637-8.04291-47.95838-5.8322-12.83121-13.76473-23.09579-23.79761-30.79376-10.03342-7.69712-21.70079-13.1801-35.00213-16.44897-13.30182-3.26799-27.42229-4.90221-42.36146-4.90265z"/>
</symbol><symbol id="school" viewBox="0 0 50 43.75"><path d="M45.664 10.898c.707-.164 1.211-.797 1.211-1.523 0-.73-.504-1.359-1.211-1.523l-20.313-4.688-.352-.039-.352.039-20.313 4.688c-.711.164-1.211.793-1.211 1.523 0 .727.5 1.359 1.211 1.523l20.313 4.688.352.039.352-.039zm-6.602 4.73l-13.008 3.004c-.359.078-.711.117-1.055.117s-.695-.039-1.035-.113l-13.027-3.008v12.496c0 1.727 4.688 4.688 14.063 4.688s14.063-2.961 14.063-4.688zm7.305-1.684l-4.18.961v13.219c0 4.145-4.746 7.813-17.188 7.813-12.441 0-17.188-3.668-17.188-7.813v-13.219l-4.18-.961c-2.137-.496-3.633-2.375-3.633-4.57 0-2.195 1.492-4.074 3.633-4.57l20.313-4.688c.363-.078.711-.117 1.055-.117s.691.039 1.031.113l20.336 4.691c2.137.496 3.633 2.375 3.633 4.57 0 2.195-1.496 4.074-3.633 4.57m-1.055 3.242v14.063c0 .863.699 1.563 1.563 1.563.863 0 1.563-.699 1.563-1.563v-14.063c0-.863-.699-1.563-1.563-1.563-.863 0-1.563.699-1.563 1.563m4.688 23.438c0 1.727-1.398 3.125-3.125 3.125s-3.125-1.398-3.125-3.125c0-1.723 1.398-6.25 3.125-6.25s3.125 4.527 3.125 6.25" data-fill="rgb(19.999695%,19.999695%,19.999695%)"/></symbol><symbol id="shevron-left" viewBox="0 0 12 22">
    <path stroke-linejoin="miter" stroke-linecap="round" stroke-width="2" stroke="#000000" fill="none" fill-rule="evenodd" d="M 11 21 C 11 21 1 11 1 11 C 1 11 11 1 11 1"/>
</symbol><symbol id="shevron-right" viewBox="0 0 12 22">
    <path stroke-linejoin="miter" stroke-linecap="round" stroke-width="2" stroke="#000000" fill="none" fill-rule="evenodd" d="M 1 1 C 1 1 11 11 11 11 C 11 11 1 21 1 21"/>
</symbol><symbol id="shop" viewBox="0 0 50 50"><path d="M46.875 21.875c0 .863-.699 1.563-1.563 1.563h-2.898l-6.25-10.938h4.461c.492 0 .953.23 1.246.625l4.691 6.25c.203.27.313.598.313.938zm-4.688 25h-9.375v-15.625c0-.863-.703-1.563-1.563-1.563h-11.719c-.863 0-1.563.699-1.563 1.563v15.625h-10.156v-20.313h34.375zm-10.938 0h-11.719v-15.625h11.719zm-28.125-25v-1.563c0-.34.109-.668.313-.938l4.688-6.25c.297-.395.758-.625 1.25-.625h4.457l-6.25 10.938h-2.895c-.863 0-1.563-.699-1.563-1.563m27.82-9.375h3.422l6.25 10.938h-6.547zm-5.164 0h3.539l3.125 10.938h-6.664zm-5.102 0h3.539v10.938h-6.664zm-4.754 10.938h-6.543l6.25-10.938h3.418zm24.699-14.063h-31.25v-6.25h31.25zm8.438 8.125l-4.688-6.246c-.184-.246-.398-.457-.625-.66v-7.469c0-1.727-1.398-3.125-3.125-3.125h-31.25c-1.727 0-3.125 1.398-3.125 3.125v7.469c-.227.203-.441.414-.625.656l-4.688 6.246c-.605.809-.938 1.809-.938 2.816v1.563c0 2.586 2.102 4.688 4.688 4.688v20.313c0 1.727 1.398 3.125 3.125 3.125h34.375c1.727 0 3.125-1.398 3.125-3.125v-20.313c2.586 0 4.688-2.102 4.688-4.688v-1.563c0-1.008-.332-2.008-.938-2.813" data-fill="rgb(0.392151%,0%,0.784302%)"/></symbol><symbol id="star" viewBox="0 0 126.7 126.7">
<g>
	<path d="M121.2,44.2l-34.9-3.3c-2.2-0.2-4.1-1.6-5-3.7L68.8,6.9c-2-5-9.1-5-11.1,0L45.3,37.2c-0.8,2.1-2.8,3.5-5,3.7L5.4,44.2
		c-5.2,0.5-7.3,7-3.4,10.5l26.3,23.1c1.7,1.5,2.4,3.7,1.9,5.9l-7.9,32.4c-1.2,5.1,4.3,9.3,8.9,6.6l29.1-17.1c1.9-1.1,4.2-1.1,6.1,0
		l29.1,17.1c4.6,2.7,10.1-1.4,8.9-6.6l-7.8-32.4c-0.5-2.2,0.2-4.4,1.9-5.9l26.3-23.1C128.6,51.2,126.4,44.7,121.2,44.2z"/>
</g>
</symbol><symbol id="vk" viewBox="0 0 40 40">
<circle fill="#f88d89" cx="20" cy="20" r="20"/>
<path fill="#FFFFFF" d="M28.8,19.8c0.3-0.4,0.6-0.8,0.8-1c1.4-1.8,2-3,1.8-3.5l-0.1-0.1c0-0.1-0.2-0.1-0.4-0.2
	c-0.2-0.1-0.4-0.1-0.8,0l-3.4,0c-0.1,0-0.2,0-0.2,0c-0.1,0-0.1,0-0.2,0c0,0,0,0-0.1,0l0,0c0,0-0.1,0.1-0.1,0.1
	c0,0.1-0.1,0.1-0.1,0.2c-0.4,1-0.8,1.8-1.3,2.7c-0.3,0.5-0.6,0.9-0.8,1.3c-0.2,0.4-0.4,0.6-0.6,0.8c-0.2,0.2-0.3,0.3-0.4,0.4
	c-0.1,0.1-0.2,0.1-0.3,0.1c-0.1,0-0.1,0-0.2,0c-0.1-0.1-0.2-0.2-0.3-0.3c-0.1-0.1-0.1-0.3-0.1-0.5c0-0.2,0-0.3,0-0.5
	c0-0.1,0-0.3,0-0.6c0-0.2,0-0.4,0-0.5c0-0.3,0-0.6,0-1c0-0.3,0-0.6,0-0.8c0-0.2,0-0.4,0-0.6c0-0.2,0-0.4,0-0.5
	c0-0.1-0.1-0.3-0.1-0.4c-0.1-0.1-0.1-0.2-0.2-0.3c-0.1-0.1-0.2-0.1-0.4-0.2c-0.4-0.1-0.9-0.1-1.6-0.2c-1.5,0-2.4,0.1-2.8,0.3
	c-0.2,0.1-0.3,0.2-0.4,0.4c-0.1,0.2-0.2,0.3-0.1,0.3c0.5,0.1,0.8,0.2,1,0.5l0.1,0.1c0.1,0.1,0.1,0.3,0.2,0.5
	c0.1,0.3,0.1,0.5,0.1,0.9c0,0.6,0,1.1,0,1.5c0,0.4-0.1,0.7-0.1,1c0,0.2-0.1,0.4-0.2,0.6c-0.1,0.1-0.1,0.2-0.1,0.3c0,0,0,0.1-0.1,0.1
	c-0.1,0-0.2,0.1-0.3,0.1c-0.1,0-0.2-0.1-0.4-0.2c-0.2-0.1-0.3-0.3-0.5-0.5c-0.2-0.2-0.4-0.5-0.6-0.8c-0.2-0.3-0.4-0.8-0.7-1.2
	l-0.2-0.3c-0.1-0.2-0.3-0.5-0.5-1c-0.2-0.4-0.4-0.8-0.5-1.2c-0.1-0.2-0.2-0.3-0.3-0.4l-0.1,0c0,0-0.1-0.1-0.2-0.1
	c-0.1,0-0.2-0.1-0.3-0.1l-3.2,0c-0.3,0-0.6,0.1-0.7,0.2l0,0.1c0,0,0,0.1,0,0.2c0,0.1,0,0.2,0.1,0.3c0.5,1.1,1,2.2,1.5,3.2
	c0.6,1,1,1.9,1.4,2.5c0.4,0.6,0.8,1.2,1.3,1.8c0.4,0.6,0.7,0.9,0.8,1.1c0.1,0.2,0.2,0.3,0.3,0.4l0.3,0.3c0.2,0.2,0.5,0.4,0.8,0.7
	c0.4,0.3,0.8,0.5,1.2,0.8c0.4,0.3,1,0.5,1.6,0.6c0.6,0.2,1.2,0.2,1.7,0.2h1.4c0.3,0,0.5-0.1,0.6-0.3l0-0.1c0,0,0.1-0.1,0.1-0.2
	c0-0.1,0-0.2,0-0.3c0-0.3,0-0.6,0.1-0.9c0.1-0.3,0.1-0.5,0.2-0.6c0.1-0.1,0.2-0.3,0.3-0.3c0.1-0.1,0.2-0.2,0.2-0.2c0,0,0.1,0,0.1,0
	c0.2-0.1,0.4,0,0.7,0.2c0.3,0.2,0.5,0.4,0.7,0.7c0.2,0.3,0.5,0.6,0.8,0.9c0.3,0.3,0.6,0.6,0.8,0.8L26,27c0.2,0.1,0.4,0.2,0.6,0.3
	c0.3,0.1,0.5,0.1,0.7,0.1l3,0c0.3,0,0.5,0,0.7-0.1c0.2-0.1,0.3-0.2,0.3-0.3c0-0.1,0-0.3,0-0.4c0-0.1-0.1-0.3-0.1-0.3
	c0-0.1-0.1-0.1-0.1-0.1c-0.4-0.7-1.1-1.6-2.3-2.6l0,0l0,0l0,0h0c-0.5-0.5-0.8-0.8-1-1c-0.2-0.3-0.3-0.6-0.2-1
	C27.8,21.1,28.2,20.6,28.8,19.8z"/>
</symbol></svg>