<?xml version="1.0" encoding="UTF-8"?><!DOCTYPE svg PUBLIC "-//W3C//DTD SVG 1.1//EN" "http://www.w3.org/Graphics/SVG/1.1/DTD/svg11.dtd"><svg xmlns="http://www.w3.org/2000/svg" xmlns:xlink="http://www.w3.org/1999/xlink"><symbol id="arrow-down" viewBox="0 0 8 5">
    <path stroke-linejoin="round" stroke-linecap="round" stroke-width="2" stroke="#ffffff" fill="none" opacity="0.7" fill-rule="evenodd" d="M 1 1 C 1 1 4 4 4 4 C 4 4 7 1 7 1"/>
</symbol><symbol id="fb" viewBox="0 0 40 40">
<circle fill="#ffb39c" cx="20" cy="20" r="20"/>
<path fill="#FFFFFF" d="M25.6,8.9l-2.9,0c-3.2,0-5.3,2.1-5.3,5.5v2.5h-2.9c-0.3,0-0.5,0.2-0.5,0.5V21c0,0.2,0.2,0.5,0.5,0.5h2.9v9.2
	c0,0.2,0.2,0.5,0.5,0.5h3.8c0.3,0,0.5-0.2,0.5-0.5v-9.2h3.4c0.3,0,0.5-0.2,0.5-0.5l0-3.6c0-0.1,0-0.2-0.1-0.3
	c-0.1-0.1-0.2-0.1-0.3-0.1H22v-2.1c0-1,0.2-1.5,1.6-1.5l1.9,0c0.3,0,0.5-0.2,0.5-0.5V9.4C26,9.1,25.8,8.9,25.6,8.9z"/>
</symbol><symbol id="insta" viewBox="0 0 1000 1000">
<circle fill="#e0e195" cx="500" cy="500" r="500"/>
<path fill="#FFFFFF" d="M661.2,233.8H338.2c-56.1,0-101.8,45.6-101.8,101.8v107.5v215.6c0,56.1,45.7,101.8,101.8,101.8h323.1
	c56.1,0,101.8-45.6,101.8-101.8V443.1V335.6C763,279.5,717.4,233.8,661.2,233.8z M690.4,294.5l11.6,0v11.6v77.7l-89,0.3l-0.3-89.2
	L690.4,294.5z M424.6,443.1c16.9-23.3,44.2-38.6,75.2-38.6s58.3,15.3,75.1,38.6c11,15.2,17.5,33.9,17.5,54
	c0,51.1-41.6,92.7-92.7,92.7c-51.1,0-92.7-41.6-92.7-92.7C407,476.9,413.6,458.3,424.6,443.1z M711.7,658.6
	c0,27.8-22.6,50.5-50.5,50.5H338.2c-27.8,0-50.5-22.6-50.5-50.5V443.1h78.6c-6.8,16.7-10.6,34.9-10.6,54c0,79.4,64.6,144,144,144
	c79.4,0,144-64.6,144-144c0-19.1-3.8-37.3-10.6-54h78.6V658.6z"/>
</symbol><symbol id="leaves" viewBox="0 0 74 78">
    <path fill="#e7eca1" fill-rule="evenodd" d="M 71.5 0.03 C 71.5 0.03 78.75 27.48 66.32 49 C 53.89 70.52 26.5 77.97 26.5 77.97 C 26.5 77.97 19.25 50.52 31.68 29 C 44.11 7.48 71.5 0.03 71.5 0.03 Z"/>
    <path fill="#6eb393" opacity="0.1" fill-rule="evenodd" d="M 71.5 0.03 C 71.5 0.03 78.75 27.48 66.32 49 C 53.89 70.52 26.5 77.97 26.5 77.97"/>
    <path fill="#ced649" opacity="0.7" fill-rule="evenodd" d="M 1.28 31 C 1.28 31 -3.14 47.55 4.44 60.53 C 12.01 73.51 28.72 78 28.72 78 C 28.72 78 33.14 61.45 25.56 48.47 C 17.99 35.49 1.28 31 1.28 31 Z"/>
</symbol><symbol id="ok" viewBox="0 0 40 40">
<circle fill="#cfd45a" cx="20" cy="20" r="20"/>
<g id="Forma_1">
	<g>
		<path fill-rule="evenodd" clip-rule="evenodd" fill="#FFFFFF" d="M26.2,22.3c0.4-0.5,0.4-1,0.1-1.6c-0.3-0.5-0.9-0.7-1.4-0.6
			c-0.3,0.1-0.6,0.2-0.8,0.4c-2.5,1.7-5.8,1.6-8.3-0.1c-0.1-0.1-0.2-0.2-0.4-0.2c-0.7-0.3-1.3-0.2-1.7,0.4c-0.5,0.7-0.4,1.3,0.2,1.8
			c0.1,0.1,0.3,0.3,0.5,0.4c1.3,1,2.8,1.5,4.5,1.6c-0.1,0.1-0.2,0.2-0.3,0.3c-1.2,1.3-2.5,2.5-3.7,3.8c-0.3,0.3-0.4,0.5-0.5,0.9
			c0,0.6,0.3,1.1,0.9,1.4c0.5,0.2,1,0.2,1.5-0.3c1-1,2-2,2.9-2.9c0.2-0.2,0.4-0.3,0.6,0c0.9,1,1.9,1.9,2.9,2.9
			c0.2,0.3,0.5,0.4,0.9,0.5c0.6,0,1.1-0.3,1.4-0.9c0.2-0.5,0.1-1.1-0.3-1.5c-1.3-1.3-2.5-2.6-3.8-3.8c-0.1-0.1-0.2-0.2-0.3-0.3
			c0.9-0.1,1.9-0.3,2.7-0.6C24.7,23.5,25.6,23,26.2,22.3z M20,20.1c3.1,0,5.6-2.5,5.6-5.5c0-3.1-2.4-5.7-5.5-5.7
			c-3.1,0-5.6,2.5-5.6,5.6C14.4,17.6,16.9,20.1,20,20.1z M20,11.8c1.5,0,2.7,1.2,2.7,2.7c0,1.5-1.2,2.7-2.7,2.7
			c-1.5,0-2.7-1.2-2.7-2.7C17.3,13,18.5,11.8,20,11.8z"/>
	</g>
</g>
</symbol><symbol id="ribbon_number" viewBox="0 0 65 40">
    <path fill="#ca575b" fill-rule="evenodd" d="M 0 0 C 0 0 60 0 60 0 C 60 0 60 40 60 40 C 60 40 49.08 35 28.63 35 C 9.1 35 0 40 0 40 C 0 40 0 0 0 0 Z"/>
    <path stroke-linejoin="miter" stroke-linecap="butt" stroke-dasharray="4,2" stroke-width="1" stroke="#ffffff" fill="none" opacity="0.3" fill-rule="evenodd" d="M 3 3 C 3 3 57 3 57 3 C 57 3 57 37 57 37 C 57 37 49.08 32 28.63 32 C 9.1 32 3 37 3 37 C 3 37 3 3 3 3 Z"/>
    <path fill="#ffffff" opacity="0.1" fill-rule="evenodd" d="M 0 0 C 0 0 60 0 60 0 C 60 0 60 40 60 40 C 60 40 0 0 0 0 Z"/>
    <path fill="#7d3031" fill-rule="evenodd" d="M 60 0 C 60 0 65 5 65 5 C 65 5 60 5 60 5 C 60 5 60 0 60 0 Z"/>
</symbol><symbol id="ribbon_text" viewBox="0 0 85 40">
    <path fill="#ca575b" fill-rule="evenodd" d="M 0 0 C 0 0 80 0 80 0 C 80 0 80 40 80 40 C 80 40 59.08 35 38.63 35 C 19.1 35 0 40 0 40 C 0 40 0 0 0 0 Z"/>
    <path stroke-linejoin="miter" stroke-linecap="butt" stroke-dasharray="4,2" stroke-width="1" stroke="#ffffff" fill="none" opacity="0.3" fill-rule="evenodd" d="M 3 3 C 3 3 77 3 77 3 C 77 3 77 37 77 37 C 77 37 59.08 32 38.63 32 C 19.1 32 3 37 3 37 C 3 37 3 3 3 3 Z"/>
    <path fill="#ffffff" opacity="0.1" fill-rule="evenodd" d="M 0 0 C 0 0 80 0 80 0 C 80 0 80 40 80 40 C 80 40 0 0 0 0 Z"/>
    <path fill="#7d3031" fill-rule="evenodd" d="M 80 0 C 80 0 85 5 85 5 C 85 5 80 5 80 5 C 80 5 80 0 80 0 Z"/>
</symbol><symbol id="rouble" viewBox="0 0 400 550">
<path transform="translate(-44,-473)" d="m75.949795,761.44891h49.710085v-249.89624c17.73062-4.20076 36.74661-7.00278 57.04803-8.40606 20.30116-1.4023 40.48496-2.10369 60.55146-2.10419 21.46178,5e-4 42.5784,2.10112 63.34991,6.30188 20.77101,4.20174 39.20666,11.90284 55.30701,23.10333 16.09973,11.20143 29.04883,26.36865 38.84735,45.50171 9.79782,19.13391 14.6969,43.63289 14.69726,73.49701-3.6e-4,29.39485-5.01694,53.89383-15.04974,73.49701-10.0335,19.60373-23.33508,35.47234-39.90479,47.6059-16.57031,12.134-35.47237,20.76792-56.70623,25.90179-21.23436,5.13427-42.81739,7.93629-64.74915,8.40607l-55.28564,0.68359v49.71008h116.18957v43.38684h-116.18957v98.01026h-58.10547v-98.01026h-49.710085v-43.38684h49.710085v-50.39367h-49.710085z
M244.64791,550.04755c-12.13396,4.4e-4,-23.68384,0.34936-34.64965,1.04675-10.96613,0.69828-19.71043,1.75215-26.23291,3.16162v202.98462h53.19214c13.99923,2.4e-4 27.99864-1.39899 41.99829-4.19769 13.99919-2.79822 26.59937-8.16371 37.80059-16.0965 11.2007-7.93227 20.30103-18.78075 27.30103-32.54547 6.99942-13.76414 10.26429-31.84731 9.79462-54.24957 0.46967-19.14026-2.2113-35.12637-8.04291-47.95838-5.8322-12.83121-13.76473-23.09579-23.79761-30.79376-10.03342-7.69712-21.70079-13.1801-35.00213-16.44897-13.30182-3.26799-27.42229-4.90221-42.36146-4.90265z"/>
</symbol><symbol id="shevron-left" viewBox="0 0 12 22">
    <path stroke-linejoin="miter" stroke-linecap="round" stroke-width="2" stroke="#000000" fill="none" fill-rule="evenodd" d="M 11 21 C 11 21 1 11 1 11 C 1 11 11 1 11 1"/>
</symbol><symbol id="shevron-right" viewBox="0 0 12 22">
    <path stroke-linejoin="miter" stroke-linecap="round" stroke-width="2" stroke="#000000" fill="none" fill-rule="evenodd" d="M 1 1 C 1 1 11 11 11 11 C 11 11 1 21 1 21"/>
</symbol><symbol id="vk" viewBox="0 0 40 40">
<circle fill="#f88d89" cx="20" cy="20" r="20"/>
<path fill="#FFFFFF" d="M28.8,19.8c0.3-0.4,0.6-0.8,0.8-1c1.4-1.8,2-3,1.8-3.5l-0.1-0.1c0-0.1-0.2-0.1-0.4-0.2
	c-0.2-0.1-0.4-0.1-0.8,0l-3.4,0c-0.1,0-0.2,0-0.2,0c-0.1,0-0.1,0-0.2,0c0,0,0,0-0.1,0l0,0c0,0-0.1,0.1-0.1,0.1
	c0,0.1-0.1,0.1-0.1,0.2c-0.4,1-0.8,1.8-1.3,2.7c-0.3,0.5-0.6,0.9-0.8,1.3c-0.2,0.4-0.4,0.6-0.6,0.8c-0.2,0.2-0.3,0.3-0.4,0.4
	c-0.1,0.1-0.2,0.1-0.3,0.1c-0.1,0-0.1,0-0.2,0c-0.1-0.1-0.2-0.2-0.3-0.3c-0.1-0.1-0.1-0.3-0.1-0.5c0-0.2,0-0.3,0-0.5
	c0-0.1,0-0.3,0-0.6c0-0.2,0-0.4,0-0.5c0-0.3,0-0.6,0-1c0-0.3,0-0.6,0-0.8c0-0.2,0-0.4,0-0.6c0-0.2,0-0.4,0-0.5
	c0-0.1-0.1-0.3-0.1-0.4c-0.1-0.1-0.1-0.2-0.2-0.3c-0.1-0.1-0.2-0.1-0.4-0.2c-0.4-0.1-0.9-0.1-1.6-0.2c-1.5,0-2.4,0.1-2.8,0.3
	c-0.2,0.1-0.3,0.2-0.4,0.4c-0.1,0.2-0.2,0.3-0.1,0.3c0.5,0.1,0.8,0.2,1,0.5l0.1,0.1c0.1,0.1,0.1,0.3,0.2,0.5
	c0.1,0.3,0.1,0.5,0.1,0.9c0,0.6,0,1.1,0,1.5c0,0.4-0.1,0.7-0.1,1c0,0.2-0.1,0.4-0.2,0.6c-0.1,0.1-0.1,0.2-0.1,0.3c0,0,0,0.1-0.1,0.1
	c-0.1,0-0.2,0.1-0.3,0.1c-0.1,0-0.2-0.1-0.4-0.2c-0.2-0.1-0.3-0.3-0.5-0.5c-0.2-0.2-0.4-0.5-0.6-0.8c-0.2-0.3-0.4-0.8-0.7-1.2
	l-0.2-0.3c-0.1-0.2-0.3-0.5-0.5-1c-0.2-0.4-0.4-0.8-0.5-1.2c-0.1-0.2-0.2-0.3-0.3-0.4l-0.1,0c0,0-0.1-0.1-0.2-0.1
	c-0.1,0-0.2-0.1-0.3-0.1l-3.2,0c-0.3,0-0.6,0.1-0.7,0.2l0,0.1c0,0,0,0.1,0,0.2c0,0.1,0,0.2,0.1,0.3c0.5,1.1,1,2.2,1.5,3.2
	c0.6,1,1,1.9,1.4,2.5c0.4,0.6,0.8,1.2,1.3,1.8c0.4,0.6,0.7,0.9,0.8,1.1c0.1,0.2,0.2,0.3,0.3,0.4l0.3,0.3c0.2,0.2,0.5,0.4,0.8,0.7
	c0.4,0.3,0.8,0.5,1.2,0.8c0.4,0.3,1,0.5,1.6,0.6c0.6,0.2,1.2,0.2,1.7,0.2h1.4c0.3,0,0.5-0.1,0.6-0.3l0-0.1c0,0,0.1-0.1,0.1-0.2
	c0-0.1,0-0.2,0-0.3c0-0.3,0-0.6,0.1-0.9c0.1-0.3,0.1-0.5,0.2-0.6c0.1-0.1,0.2-0.3,0.3-0.3c0.1-0.1,0.2-0.2,0.2-0.2c0,0,0.1,0,0.1,0
	c0.2-0.1,0.4,0,0.7,0.2c0.3,0.2,0.5,0.4,0.7,0.7c0.2,0.3,0.5,0.6,0.8,0.9c0.3,0.3,0.6,0.6,0.8,0.8L26,27c0.2,0.1,0.4,0.2,0.6,0.3
	c0.3,0.1,0.5,0.1,0.7,0.1l3,0c0.3,0,0.5,0,0.7-0.1c0.2-0.1,0.3-0.2,0.3-0.3c0-0.1,0-0.3,0-0.4c0-0.1-0.1-0.3-0.1-0.3
	c0-0.1-0.1-0.1-0.1-0.1c-0.4-0.7-1.1-1.6-2.3-2.6l0,0l0,0l0,0h0c-0.5-0.5-0.8-0.8-1-1c-0.2-0.3-0.3-0.6-0.2-1
	C27.8,21.1,28.2,20.6,28.8,19.8z"/>
</symbol></svg>