<svg xmlns="http://www.w3.org/2000/svg" width="47.529pt" height="50pt" viewBox="0 0 47.529 50.0002"><defs><clipPath id="a"><path d="M0 0h47.527v50h-47.527zm0 0"/></clipPath></defs><path d="M36.184 27.426c-.852.109-1.492.832-1.492 1.695v11.406h-3.273v-10.641c0-.785-.637-1.422-1.422-1.422-.785 0-1.422.637-1.422 1.422v10.641h-3.387v-10.641c0-.785-.637-1.422-1.422-1.422-.785 0-1.422.637-1.422 1.422v10.641h-3.391v-10.641c0-.785-.637-1.422-1.422-1.422-.785 0-1.422.637-1.422 1.422v10.641h-3.273v-11.242l.008-.059c.055-.898-.598-1.688-1.492-1.801-4.527-.57-7.938-4.445-7.938-9.012 0-5.016 4.078-9.094 9.09-9.094.438 0 .887.035 1.328.098.734.109 1.449-.27 1.777-.93 1.543-3.133 4.668-5.074 8.156-5.074 3.484 0 6.609 1.941 8.156 5.074.324.66 1.043 1.039 1.777.93.441-.063.887-.098 1.328-.098 5.012 0 9.09 4.078 9.09 9.094 0 4.563-3.41 8.438-7.934 9.012m-1.492 19.16h-21.855v-3.215h21.855zm.336-40.676c-.211 0-.418.004-.629.016-2.27-3.684-6.242-5.926-10.633-5.926-4.391 0-8.367 2.242-10.637 5.926-.207-.012-.418-.016-.625-.016-6.895 0-12.504 5.609-12.504 12.504 0 5.766 3.957 10.73 9.426 12.113v17.766c0 .945.762 1.707 1.707 1.707h25.266c.941 0 1.707-.762 1.707-1.707v-17.762c5.465-1.387 9.422-6.352 9.422-12.117 0-6.895-5.609-12.504-12.5-12.504" clip-path="url(#a)"/></svg>