<?xml version="1.0" encoding="utf-8"?>
<!-- Generator: Avocode 2.4.5 - http://avocode.com -->
<svg height="78" width="74" xmlns:xlink="http://www.w3.org/1999/xlink" xmlns="http://www.w3.org/2000/svg" viewBox="0 0 74 78">
    <path fill="#e7eca1" fill-rule="evenodd" d="M 71.5 0.03 C 71.5 0.03 78.75 27.48 66.32 49 C 53.89 70.52 26.5 77.97 26.5 77.97 C 26.5 77.97 19.25 50.52 31.68 29 C 44.11 7.48 71.5 0.03 71.5 0.03 Z" />
    <path fill="#6eb393" opacity="0.1" fill-rule="evenodd" d="M 71.5 0.03 C 71.5 0.03 78.75 27.48 66.32 49 C 53.89 70.52 26.5 77.97 26.5 77.97" />
    <path fill="#ced649" opacity="0.7" fill-rule="evenodd" d="M 1.28 31 C 1.28 31 -3.14 47.55 4.44 60.53 C 12.01 73.51 28.72 78 28.72 78 C 28.72 78 33.14 61.45 25.56 48.47 C 17.99 35.49 1.28 31 1.28 31 Z" />
</svg>