<?xml version="1.0" encoding="utf-8"?>
<!-- Generator: Avocode 2.4.5 - http://avocode.com -->
<svg height="40" width="85" xmlns:xlink="http://www.w3.org/1999/xlink" xmlns="http://www.w3.org/2000/svg" viewBox="0 0 85 40">
    <path fill="#ca575b" fill-rule="evenodd" d="M 0 0 C 0 0 80 0 80 0 C 80 0 80 40 80 40 C 80 40 59.08 35 38.63 35 C 19.1 35 0 40 0 40 C 0 40 0 0 0 0 Z" />
    <path stroke-linejoin="miter" stroke-linecap="butt" stroke-dasharray="4,2" stroke-width="1" stroke="#ffffff" fill="none" opacity="0.3" fill-rule="evenodd" d="M 3 3 C 3 3 77 3 77 3 C 77 3 77 37 77 37 C 77 37 59.08 32 38.63 32 C 19.1 32 3 37 3 37 C 3 37 3 3 3 3 Z" />
    <path fill="#ffffff" opacity="0.1" fill-rule="evenodd" d="M 0 0 C 0 0 80 0 80 0 C 80 0 80 40 80 40 C 80 40 0 0 0 0 Z" />
    <path fill="#7d3031" fill-rule="evenodd" d="M 80 0 C 80 0 85 5 85 5 C 85 5 80 5 80 5 C 80 5 80 0 80 0 Z" />
</svg>