<svg xmlns="http://www.w3.org/2000/svg" width="50pt" height="50pt" viewBox="0 0 50 50"><path d="M46.875 21.875c0 .863-.699 1.563-1.563 1.563h-2.898l-6.25-10.938h4.461c.492 0 .953.23 1.246.625l4.691 6.25c.203.27.313.598.313.938zm-4.688 25h-9.375v-15.625c0-.863-.703-1.563-1.563-1.563h-11.719c-.863 0-1.563.699-1.563 1.563v15.625h-10.156v-20.313h34.375zm-10.938 0h-11.719v-15.625h11.719zm-28.125-25v-1.563c0-.34.109-.668.313-.938l4.688-6.25c.297-.395.758-.625 1.25-.625h4.457l-6.25 10.938h-2.895c-.863 0-1.563-.699-1.563-1.563m27.82-9.375h3.422l6.25 10.938h-6.547zm-5.164 0h3.539l3.125 10.938h-6.664zm-5.102 0h3.539v10.938h-6.664zm-4.754 10.938h-6.543l6.25-10.938h3.418zm24.699-14.063h-31.25v-6.25h31.25zm8.438 8.125l-4.688-6.246c-.184-.246-.398-.457-.625-.66v-7.469c0-1.727-1.398-3.125-3.125-3.125h-31.25c-1.727 0-3.125 1.398-3.125 3.125v7.469c-.227.203-.441.414-.625.656l-4.688 6.246c-.605.809-.938 1.809-.938 2.816v1.563c0 2.586 2.102 4.688 4.688 4.688v20.313c0 1.727 1.398 3.125 3.125 3.125h34.375c1.727 0 3.125-1.398 3.125-3.125v-20.313c2.586 0 4.688-2.102 4.688-4.688v-1.563c0-1.008-.332-2.008-.938-2.813" data-fill="rgb(0.392151%,0%,0.784302%)"/></svg>