<?xml version="1.0" encoding="utf-8"?>
<!-- Generator: Adobe Illustrator 19.2.0, SVG Export Plug-In . SVG Version: 6.00 Build 0)  -->
<svg version="1.1" id="Слой_1" xmlns="http://www.w3.org/2000/svg" xmlns:xlink="http://www.w3.org/1999/xlink" x="0px" y="0px"
	 viewBox="0 0 98 98" style="enable-background:new 0 0 98 98;" xml:space="preserve">
<style type="text/css">
	.st0{fill:#CCD64E;}
	.st1{fill:#E6ED9E;}
	.st2{fill:#CED55A;stroke:#E7ECA1;stroke-width:4;stroke-miterlimit:10;}
	.st3{fill:#F98373;}
	.st4{fill:#BE424A;}
	.st5{fill:none;stroke:#FFFFFF;stroke-miterlimit:10;}
</style>
<g>
	<circle class="st0" cx="49" cy="49" r="49"/>
</g>
<g>
	<path class="st1" d="M0.5,41.9C0.2,44.2,0,46.6,0,49c0,0.2,0,0.4,0,0.6l54.2,48.1c2.6-0.3,5.1-0.8,7.6-1.4L0.5,41.9z"/>
	<path class="st1" d="M19,10.3c-2,1.5-3.8,3.2-5.5,5l73.2,65c1.6-1.9,3-3.9,4.3-6.1L19,10.3z"/>
	<path class="st1" d="M7.3,23.3c-1.5,2.5-2.8,5.1-3.9,7.8l68.8,61.1c2.6-1.4,5-3,7.3-4.8L7.3,23.3z"/>
	<path class="st1" d="M36,1.8c-2.8,0.8-5.6,1.8-8.1,3l67.6,60c0.9-2.7,1.6-5.5,2.1-8.4L36,1.8z"/>
	<path class="st1" d="M2.9,65.6C8.5,81.1,21.7,93,38,96.8L2.9,65.6z"/>
	<path class="st1" d="M60.9,1.5C57.1,0.5,53.1,0,49,0l48.6,43.1c-0.5-4-1.4-7.9-2.8-11.6L60.9,1.5z"/>
</g>
<path class="st2" d="M93,84"/>
<path class="st2" d="M13,3"/>
<polygon class="st3" points="17,28 17,62 81.3,61.7 81,28 "/>
<path class="st3" d="M83,34.9H15.1l-1.4,48C22.6,92.2,35.1,98,49,98c14.1,0,26.7-5.9,35.6-15.4L83,34.9z"/>
<polygon class="st4" points="25,30.5 15,35 83,35 72.8,30.5 81,28 17,28 "/>
<circle class="st4" cx="31.1" cy="44" r="1.9"/>
<circle class="st4" cx="67.1" cy="44" r="1.9"/>
<path class="st5" d="M31.1,44c0,0-2.1,26.9,17.9,26.9S67.1,44,67.1,44"/>
</svg>
