<svg id="Слой_1" data-name="Слой 1" xmlns="http://www.w3.org/2000/svg" viewBox="0 0 98 98"><defs><style>.cls-1{fill:#ccd64e;}.cls-2{fill:#e6ed9e;}.cls-3{fill:#ced55a;stroke:#e7eca1;stroke-width:4px;}.cls-3,.cls-6{stroke-miterlimit:10;}.cls-4{fill:#f98373;}.cls-5{fill:#be424a;}.cls-6{fill:none;stroke:#fff;}</style></defs><title>cart</title><circle class="cls-1" cx="49" cy="49" r="49"/><path class="cls-2" d="M0.52,41.92A49.35,49.35,0,0,0,0,49c0,0.22,0,.43,0,0.64L54.18,97.72a48.84,48.84,0,0,0,7.6-1.42Z"/><path class="cls-2" d="M19,10.31a49.34,49.34,0,0,0-5.54,5l73.24,65A49.14,49.14,0,0,0,91,74.25Z"/><path class="cls-2" d="M7.3,23.27A48.82,48.82,0,0,0,3.39,31.1l68.8,61.07a49.15,49.15,0,0,0,7.29-4.82Z"/><path class="cls-2" d="M36,1.77a48.66,48.66,0,0,0-8.15,3l67.57,60a48.61,48.61,0,0,0,2.06-8.44Z"/><path class="cls-2" d="M2.87,65.55A49.08,49.08,0,0,0,38,96.75Z"/><path class="cls-2" d="M60.88,1.46A49.09,49.09,0,0,0,49,0l48.6,43.14a48.68,48.68,0,0,0-2.85-11.58Z"/><path class="cls-3" d="M93,84"/><path class="cls-3" d="M13,3"/><polygon class="cls-4" points="17 28 17 62 81.26 61.73 81 28 17 28"/><path class="cls-4" d="M83,34.94H15.09l-1.41,48a49,49,0,0,0,71-.33Z"/><polygon class="cls-5" points="25 30.5 15 35 83 35.03 72.83 30.5 81 28 17 28 25 30.5"/><circle class="cls-5" cx="31.13" cy="44.04" r="1.88"/><circle class="cls-5" cx="67.13" cy="44.04" r="1.88"/><path class="cls-6" d="M31.13,44S29,70.92,49,70.92,67.13,44,67.13,44"/></svg>