<?xml version="1.0" encoding="UTF-8" standalone="no"?>
<svg
   xmlns:dc="http://purl.org/dc/elements/1.1/"
   xmlns:cc="http://creativecommons.org/ns#"
   xmlns:rdf="http://www.w3.org/1999/02/22-rdf-syntax-ns#"
   xmlns:svg="http://www.w3.org/2000/svg"
   xmlns="http://www.w3.org/2000/svg"
   xml:space="preserve"
   style="enable-background:new 0 0 98 98;"
   viewBox="0 0 98 98"
   y="0px"
   x="0px"
   id="Слой_1"
   version="1.1"><metadata
     id="metadata43"><rdf:RDF><cc:Work
         rdf:about=""><dc:format>image/svg+xml</dc:format><dc:type
           rdf:resource="http://purl.org/dc/dcmitype/StillImage" /><dc:title></dc:title></cc:Work></rdf:RDF></metadata><defs
     id="defs41" /><style
     id="style3"
     type="text/css">
	.st0{fill:#CCD64E;}
	.st1{fill:#E6ED9E;}
	.st2{fill:#CED55A;stroke:#E7ECA1;stroke-width:4;stroke-miterlimit:10;}
	.st3{fill:#F98373;}
	.st4{fill:#BE424A;}
	.st5{fill:none;stroke:#FFFFFF;stroke-miterlimit:10;}
</style><g
     id="g5"><circle
       id="circle7"
       r="49"
       cy="49"
       cx="49"
       class="st0" /></g><g
     id="g9"><path
       id="path11"
       d="M0.5,41.9C0.2,44.2,0,46.6,0,49c0,0.2,0,0.4,0,0.6l54.2,48.1c2.6-0.3,5.1-0.8,7.6-1.4L0.5,41.9z"
       class="st1" /><path
       id="path13"
       d="M19,10.3c-2,1.5-3.8,3.2-5.5,5l73.2,65c1.6-1.9,3-3.9,4.3-6.1L19,10.3z"
       class="st1" /><path
       id="path15"
       d="M7.3,23.3c-1.5,2.5-2.8,5.1-3.9,7.8l68.8,61.1c2.6-1.4,5-3,7.3-4.8L7.3,23.3z"
       class="st1" /><path
       id="path17"
       d="M36,1.8c-2.8,0.8-5.6,1.8-8.1,3l67.6,60c0.9-2.7,1.6-5.5,2.1-8.4L36,1.8z"
       class="st1" /><path
       id="path19"
       d="M2.9,65.6C8.5,81.1,21.7,93,38,96.8L2.9,65.6z"
       class="st1" /><path
       id="path21"
       d="M60.9,1.5C57.1,0.5,53.1,0,49,0l48.6,43.1c-0.5-4-1.4-7.9-2.8-11.6L60.9,1.5z"
       class="st1" /></g><path
     id="path23"
     d="M93,84"
     class="st2" /><path
     id="path25"
     d="M13,3"
     class="st2" /><polygon
     id="polygon27"
     points="17,28 17,62 81.3,61.7 81,28 "
     class="st3" /><path
     id="path29"
     d="M83,34.9H15.1l-1.4,48C22.6,92.2,35.1,98,49,98c14.1,0,26.7-5.9,35.6-15.4L83,34.9z"
     class="st3" /><polygon
     id="polygon31"
     points="25,30.5 15,35 83,35 72.8,30.5 81,28 17,28 "
     class="st4" /><circle
     id="circle33"
     r="1.9"
     cy="44"
     cx="31.1"
     class="st4" /><circle
     id="circle35"
     r="1.9"
     cy="44"
     cx="67.1"
     class="st4" /><path
     id="path37"
     d="M31.1,44c0,0-2.1,26.9,17.9,26.9S67.1,44,67.1,44"
     class="st5" /></svg>