<svg version="1.1" id="Слой_1" xmlns="http://www.w3.org/2000/svg" xmlns:xlink="http://www.w3.org/1999/xlink" x="0px" y="0px" viewBox="0 0 98 98" enable-background="new 0 0 98 98" xml:space="preserve">
	<g>
		<circle cx="49" cy="49" r="49" fill="#E7565B"/>
	</g>
	<g>
		<path fill="#EA7D85" d="M0.5,41.9C0.2,44.2,0,46.6,0,49c0,0.2,0,0.4,0,0.6l54.2,48.1c2.6-0.3,5.1-0.8,7.6-1.4L0.5,41.9z"/>
		<path fill="#EA7D85" d="M19,10.3c-2,1.5-3.8,3.2-5.5,5l73.2,65c1.6-1.9,3-3.9,4.3-6.1L19,10.3z"/>
		<path fill="#EA7D85" d="M7.3,23.3c-1.5,2.5-2.8,5.1-3.9,7.8l68.8,61.1c2.6-1.4,5-3,7.3-4.8L7.3,23.3z"/>
		<path fill="#EA7D85" d="M36,1.8c-2.8,0.8-5.6,1.8-8.1,3l67.6,60c0.9-2.7,1.6-5.5,2.1-8.4L36,1.8z"/>
		<path fill="#EA7D85" d="M2.9,65.6C8.5,81.1,21.7,93,38,96.8L2.9,65.6z"/>
		<path fill="#EA7D85" d="M60.9,1.5C57.1,0.5,53.1,0,49,0l48.6,43.1c-0.5-4-1.4-7.9-2.8-11.6L60.9,1.5z"/>
	</g>
	<g>
		<path fill="#FFFFFF" d="M63.6,46c-2.4,2.4-5.9,2.1-8.2-0.3c-2.4-2.4-2.6-5.9-0.3-8.2c2.8-2.8,4.6-1.2,6.6-2.1c0.2-0.1,0.3-0.4,0-0.6
			l-9-9c-0.9-0.9-2.4-0.9-3.2,0l-9.6,9.6c-0.2,0.2-0.3,0-0.3-0.1c-0.9-2,0.7-3.7-2-6.5c-2.4-2.4-5.9-2.1-8.2,0.3
			c-2.4,2.4-2.6,5.9-0.3,8.2c2.8,2.8,4.5,1.2,6.5,2c0.1,0,0.3,0.1,0.1,0.4l-8.7,8.7c-0.9,0.9-0.9,2.4,0,3.2l9.1,9.1
			c0.3,0.3,0.1,0.4,0,0.4c-1.9,0.8-3.7-0.7-6.4,2c-2.4,2.4-2.1,5.9,0.3,8.2s5.9,2.6,8.2,0.3c2.8-2.8,1.2-4.5,2-6.5
			c0-0.1,0.1-0.3,0.3-0.1l9.2,9.2c0.9,0.9,2.4,0.9,3.2,0l22.7-22.7c0.9-0.9,0.9-2.4,0-3.2l-9.2-9.2c-0.3-0.3-0.5,0.1-0.5,0.2
			C64.7,41.4,66.4,43.2,63.6,46z"/>
	</g>
</svg>