<?xml version="1.0" encoding="utf-8"?>
<!-- Generator: Adobe Illustrator 17.0.0, SVG Export Plug-In . SVG Version: 6.00 Build 0)  -->
<!DOCTYPE svg PUBLIC "-//W3C//DTD SVG 1.1//EN" "http://www.w3.org/Graphics/SVG/1.1/DTD/svg11.dtd">
<svg version="1.1" id="Слой_1" xmlns="http://www.w3.org/2000/svg" xmlns:xlink="http://www.w3.org/1999/xlink" x="0px" y="0px"
	 width="100px" height="100px" viewBox="0 0 100 100" enable-background="new 0 0 100 100" xml:space="preserve">
<g>
	<circle fill="#E5565A" cx="50" cy="50" r="49"/>
</g>
<g>
	<path fill="#EA7D85" d="M1.516,42.919C1.181,45.232,1,47.594,1,50c0,0.216,0.013,0.428,0.016,0.643l54.168,48.081
		c2.601-0.274,5.138-0.757,7.601-1.421L1.516,42.919z"/>
	<path fill="#EA7D85" d="M19.954,11.307c-1.973,1.534-3.823,3.215-5.539,5.027l73.242,65.012c1.594-1.913,3.046-3.949,4.338-6.093
		L19.954,11.307z"/>
	<path fill="#EA7D85" d="M8.297,24.275c-1.527,2.47-2.833,5.087-3.908,7.823L73.192,93.17c2.58-1.389,5.014-3.009,7.291-4.82
		L8.297,24.275z"/>
	<path fill="#EA7D85" d="M36.965,2.767c-2.825,0.778-5.552,1.791-8.147,3.037l67.57,59.978c0.924-2.715,1.626-5.532,2.063-8.438
		L36.965,2.767z"/>
	<path fill="#EA7D85" d="M3.873,66.55c5.582,15.556,18.808,27.457,35.149,31.2L3.873,66.55z"/>
	<path fill="#EA7D85" d="M61.884,2.459c-3.794-0.945-7.759-1.455-11.845-1.458l48.6,43.139c-0.481-4.032-1.448-7.913-2.847-11.583
		L61.884,2.459z"/>
</g>
<g id="Layer_5_4_">
	<path fill="#FFFFFF" d="M64.58,46.954c-2.356,2.356-5.884,2.064-8.24-0.293c-2.356-2.356-2.649-5.884-0.293-8.24
		c2.758-2.759,4.618-1.231,6.563-2.091c0.178-0.079,0.279-0.394,0.027-0.646l-9.015-9.015c-0.892-0.892-2.352-0.892-3.244,0
		l-9.612,9.613c-0.203,0.203-0.303,0.031-0.343-0.057c-0.902-1.962,0.742-3.728-2.036-6.506c-2.356-2.356-5.884-2.064-8.24,0.293
		c-2.356,2.356-2.649,5.884-0.293,8.24c2.75,2.75,4.523,1.181,6.454,2.016c0.104,0.045,0.336,0.136,0.066,0.407l-8.704,8.704
		c-0.892,0.892-0.892,2.352,0,3.244l9.105,9.105c0.252,0.252,0.082,0.377-0.014,0.419c-1.938,0.843-3.697-0.742-6.447,2.009
		c-2.356,2.356-2.064,5.884,0.293,8.24s5.884,2.649,8.24,0.293c2.757-2.758,1.171-4.532,2.022-6.469
		c0.039-0.088,0.101-0.297,0.277-0.121l9.234,9.234c0.892,0.892,2.352,0.892,3.244,0l22.709-22.709
		c0.892-0.892,0.892-2.352,0-3.244l-9.171-9.171c-0.252-0.252-0.452,0.052-0.524,0.206C65.713,42.378,67.371,44.162,64.58,46.954z"
		/>
</g>
</svg>
