<svg id="Слой_1" data-name="Слой 1" xmlns="http://www.w3.org/2000/svg" viewBox="0 0 98 98"><defs><style>.cls-1{fill:#e7565b;}.cls-2{fill:#ea7d85;}.cls-3{fill:#fff;}</style></defs><title>cons</title><circle class="cls-1" cx="49" cy="49" r="49"/><path class="cls-2" d="M0.52,41.92A49.35,49.35,0,0,0,0,49c0,0.22,0,.43,0,0.64L54.18,97.72a48.84,48.84,0,0,0,7.6-1.42Z"/><path class="cls-2" d="M19,10.31a49.34,49.34,0,0,0-5.54,5l73.24,65A49.14,49.14,0,0,0,91,74.25Z"/><path class="cls-2" d="M7.3,23.27A48.82,48.82,0,0,0,3.39,31.1l68.8,61.07a49.15,49.15,0,0,0,7.29-4.82Z"/><path class="cls-2" d="M36,1.77a48.66,48.66,0,0,0-8.15,3l67.57,60a48.61,48.61,0,0,0,2.06-8.44Z"/><path class="cls-2" d="M2.87,65.55A49.08,49.08,0,0,0,38,96.75Z"/><path class="cls-2" d="M60.88,1.46A49.09,49.09,0,0,0,49,0l48.6,43.14a48.68,48.68,0,0,0-2.85-11.58Z"/><g id="Layer_5" data-name="Layer 5"><path class="cls-3" d="M63.58,46c-2.36,2.36-5.88,2.06-8.24-.29s-2.65-5.88-.29-8.24c2.76-2.76,4.62-1.23,6.56-2.09a0.39,0.39,0,0,0,0-.65l-9-9a2.3,2.3,0,0,0-3.24,0l-9.61,9.61c-0.2.2-.3,0-0.34-0.06-0.9-2,.74-3.73-2-6.51C35,26.36,31.5,26.65,29.15,29s-2.65,5.88-.29,8.24c2.75,2.75,4.52,1.18,6.45,2,0.1,0,.34.14,0.07,0.41l-8.7,8.7a2.3,2.3,0,0,0,0,3.24l9.1,9.1c0.25,0.25.08,0.38,0,.42-1.94.84-3.7-.74-6.45,2C27,65.51,27.25,69,29.61,71.4s5.88,2.65,8.24.29c2.76-2.76,1.17-4.53,2-6.47,0-.09.1-0.3,0.28-0.12l9.23,9.23a2.3,2.3,0,0,0,3.24,0L75.33,51.62a2.3,2.3,0,0,0,0-3.24l-9.17-9.17c-0.25-.25-0.45.05-0.52,0.21C64.71,41.38,66.37,43.16,63.58,46Z"/></g></svg>