<?xml version="1.0" encoding="utf-8"?>
<!-- Generator: Adobe Illustrator 17.1.0, SVG Export Plug-In . SVG Version: 6.00 Build 0)  -->
<!DOCTYPE svg PUBLIC "-//W3C//DTD SVG 1.1//EN" "http://www.w3.org/Graphics/SVG/1.1/DTD/svg11.dtd">
<svg version="1.1" id="Capa_1" xmlns="http://www.w3.org/2000/svg" xmlns:xlink="http://www.w3.org/1999/xlink" x="0px" y="0px"
	 viewBox="0 0 612 612" enable-background="new 0 0 612 612" xml:space="preserve">
<g>
	<path d="M587.6,186.9c-32.3-75.2-87.1-129.9-162.9-162.3C386.7,8.4,347.3,0.2,305.8,0.2c-41.5,0-80.9,8.2-118.8,24.4
		c-75.2,32.3-130.6,86.9-163,162.3C7.9,224.6,0,264.2,0,305.7c0,41.5,7.9,81.4,24.1,119.1c32.3,75.3,87.7,130.3,163,162.6
		c37.9,16.2,77.3,24.4,118.8,24.4c41.5,0,80.9-8.3,118.8-24.4c75.9-32.4,130.7-87.4,162.9-162.6c16.2-37.9,24.4-77.6,24.4-119.1
		C612,264.2,603.8,224.8,587.6,186.9z M204.1,57.1c-26.4,33.5-45.8,76-58.2,127.5h-80C95.4,127.3,144.9,81.5,204.1,57.1z
		 M37.1,305.7c0-29.1,4.7-57.2,13.7-84.3h87.7c-4.3,28.4-6.4,56.6-6.4,84.3c0,27.4,2,55.2,6.4,83.7H50.2
		C41.5,362.2,37.1,334.1,37.1,305.7z M65.9,426.1h80c12.4,52.5,31.8,95.7,58.2,128.8C143.9,529.9,94.4,484,65.9,426.1z M287.1,571.7
		c-21.8-6.4-42.2-22.4-60.6-48.5c-18.4-26.1-32.5-58.6-42.2-97h102.7V571.7z M287.1,389.3H176c-4.4-29.8-6.7-57.6-6.7-83.7
		c0-28.1,2.3-56.2,7.4-84.3h110.4L287.1,389.3L287.1,389.3z M287.1,184.5H184.4c10.4-38.1,24.5-70.2,42.8-96
		c18.5-26,38.1-42.2,59.9-48.2L287.1,184.5L287.1,184.5z M546.1,184.5h-80c-12.4-51.5-31.8-94-58.2-127.5
		C467.1,81.5,516.6,127.3,546.1,184.5z M324.9,40.3c21.8,6,41.4,22.1,59.9,48.2c18.3,25.8,32.5,57.9,42.8,96H324.9V40.3z
		 M324.9,221.3h110.4c5,28.1,7.4,56.2,7.4,84.3c0,26.1-2.3,53.9-6.7,83.7H324.9V221.3z M324.9,571.7V426.1h102.7
		c-10,38.5-24.3,70.8-42.5,97C366.9,549.5,347,565.7,324.9,571.7z M407.9,555c26.4-33.1,45.8-76.3,58.2-128.8h80
		C517.6,484,468.1,529.9,407.9,555z M561.8,389.3h-88.3c4.4-28.4,6.4-56.2,6.4-83.7c0-27.8-2-55.9-6.4-84.3h87.7
		c9,27.1,13.7,55.2,13.7,84.3C574.9,334.1,570.5,362.2,561.8,389.3z"/>
</g>
</svg>
