<?xml version="1.0" encoding="utf-8"?>
<!-- Generator: Adobe Illustrator 17.0.0, SVG Export Plug-In . SVG Version: 6.00 Build 0)  -->
<!DOCTYPE svg PUBLIC "-//W3C//DTD SVG 1.1//EN" "http://www.w3.org/Graphics/SVG/1.1/DTD/svg11.dtd">
<svg version="1.1" id="Слой_1" xmlns="http://www.w3.org/2000/svg" xmlns:xlink="http://www.w3.org/1999/xlink" x="0px" y="0px"
	 width="50px" height="50px" viewBox="0 0 50 50" enable-background="new 0 0 50 50" xml:space="preserve">
<circle fill="#FFB39C" cx="25" cy="25" r="25"/>
<path fill="#FFFFFF" d="M32,11.125h-3.625c-4,0-6.625,2.625-6.625,6.875v3.125h-3.625c-0.375,0-0.625,0.25-0.625,0.625v4.5
	c0,0.25,0.25,0.625,0.625,0.625h3.625v11.5C21.75,38.625,22,39,22.375,39h4.75c0.375,0,0.625-0.25,0.625-0.625v-11.5H32
	c0.375,0,0.625-0.25,0.625-0.625v-4.5c0-0.125,0-0.25-0.125-0.375c-0.125-0.125-0.25-0.125-0.375-0.125H27.5v-2.625
	c0-1.25,0.25-1.875,2-1.875h2.375c0.375,0,0.625-0.25,0.625-0.625V11.75C32.5,11.375,32.25,11.125,32,11.125z"/>
</svg>
