<?xml version="1.0" encoding="utf-8"?>
<!-- Generator: Adobe Illustrator 17.1.0, SVG Export Plug-In . SVG Version: 6.00 Build 0)  -->
<!DOCTYPE svg PUBLIC "-//W3C//DTD SVG 1.1//EN" "http://www.w3.org/Graphics/SVG/1.1/DTD/svg11.dtd">
<svg version="1.1" id="Слой_1" xmlns="http://www.w3.org/2000/svg" xmlns:xlink="http://www.w3.org/1999/xlink" x="0px" y="0px"
	 viewBox="0 0 40 40" enable-background="new 0 0 40 40" xml:space="preserve">
<circle fill="#ffb39c" cx="20" cy="20" r="20"/>
<path fill="#FFFFFF" d="M25.6,8.9l-2.9,0c-3.2,0-5.3,2.1-5.3,5.5v2.5h-2.9c-0.3,0-0.5,0.2-0.5,0.5V21c0,0.2,0.2,0.5,0.5,0.5h2.9v9.2
	c0,0.2,0.2,0.5,0.5,0.5h3.8c0.3,0,0.5-0.2,0.5-0.5v-9.2h3.4c0.3,0,0.5-0.2,0.5-0.5l0-3.6c0-0.1,0-0.2-0.1-0.3
	c-0.1-0.1-0.2-0.1-0.3-0.1H22v-2.1c0-1,0.2-1.5,1.6-1.5l1.9,0c0.3,0,0.5-0.2,0.5-0.5V9.4C26,9.1,25.8,8.9,25.6,8.9z"/>
</svg>
