<?xml version="1.0" encoding="UTF-8" standalone="no"?>
<!-- Generator: Adobe Illustrator 17.0.0, SVG Export Plug-In . SVG Version: 6.00 Build 0)  -->

<svg
   xmlns:dc="http://purl.org/dc/elements/1.1/"
   xmlns:cc="http://creativecommons.org/ns#"
   xmlns:rdf="http://www.w3.org/1999/02/22-rdf-syntax-ns#"
   xmlns:svg="http://www.w3.org/2000/svg"
   xmlns="http://www.w3.org/2000/svg"
   xmlns:sodipodi="http://sodipodi.sourceforge.net/DTD/sodipodi-0.dtd"
   xmlns:inkscape="http://www.inkscape.org/namespaces/inkscape"
   version="1.1"
   id="Capa_1"
   x="0px"
   y="0px"
   width="50px"
   height="50px"
   viewBox="0 0 50 50"
   enable-background="new 0 0 50 50"
   xml:space="preserve"
   inkscape:version="0.91 r13725"
   sodipodi:docname="filter-white.svg"><metadata
     id="metadata9"><rdf:RDF><cc:Work
         rdf:about=""><dc:format>image/svg+xml</dc:format><dc:type
           rdf:resource="http://purl.org/dc/dcmitype/StillImage" /><dc:title></dc:title></cc:Work></rdf:RDF></metadata><defs
     id="defs7" /><sodipodi:namedview
     pagecolor="#ffffff"
     bordercolor="#666666"
     borderopacity="1"
     objecttolerance="10"
     gridtolerance="10"
     guidetolerance="10"
     inkscape:pageopacity="0"
     inkscape:pageshadow="2"
     inkscape:window-width="1680"
     inkscape:window-height="987"
     id="namedview5"
     showgrid="false"
     inkscape:zoom="4.72"
     inkscape:cx="-6.5677966"
     inkscape:cy="25"
     inkscape:window-x="-8"
     inkscape:window-y="19"
     inkscape:window-maximized="1"
     inkscape:current-layer="Capa_1" /><path
     d="M48.797,7.284c0-2.469-2.55-4.307-7.797-5.619C36.705,0.591,31.022,0,25,0C18.978,0,13.295,0.591,9,1.665  c-5.247,1.312-7.797,3.15-7.797,5.619c0,0.914,0.35,1.741,1.056,2.487l16.196,19.645V48.22c0,0.616,0.318,1.188,0.842,1.512  C19.583,49.91,19.908,50,20.235,50c0.27,0,0.541-0.061,0.791-0.185l9.511-4.714c0.605-0.3,0.988-0.917,0.989-1.592l0.018-14.091  L47.742,9.77C48.448,9.024,48.797,8.198,48.797,7.284z M10.665,4.929C14.588,4.046,19.678,3.56,25,3.56s10.412,0.486,14.334,1.369  c4.331,0.975,5.549,2.022,5.84,2.356c-0.291,0.333-1.509,1.381-5.84,2.356c-3.922,0.883-9.013,1.369-14.334,1.369  S14.588,10.523,10.665,9.64c-4.331-0.975-5.549-2.022-5.84-2.356C5.117,6.951,6.334,5.903,10.665,4.929z M28.392,27.645  c-0.262,0.318-0.406,0.717-0.407,1.13l-0.018,13.626l-5.952,2.95V28.778c0-0.413-0.144-0.814-0.407-1.132L9.566,13.038  c4.223,0.988,9.672,1.531,15.434,1.531c5.763,0,11.211-0.543,15.434-1.531L28.392,27.645z"
     id="path3"
     style="fill:#ffffff" /></svg>