<?xml version="1.0" encoding="utf-8"?>
<!-- Generator: Adobe Illustrator 17.0.0, SVG Export Plug-In . SVG Version: 6.00 Build 0)  -->
<!DOCTYPE svg PUBLIC "-//W3C//DTD SVG 1.1//EN" "http://www.w3.org/Graphics/SVG/1.1/DTD/svg11.dtd">
<svg version="1.1" id="Слой_1" xmlns="http://www.w3.org/2000/svg" xmlns:xlink="http://www.w3.org/1999/xlink" x="0px" y="0px"
	 width="100px" height="100px" viewBox="0 0 100 100" enable-background="new 0 0 100 100" xml:space="preserve">
<g>
	<circle fill="#E5565A" cx="50" cy="50" r="49"/>
</g>
<g>
	<path fill="#EA7D85" d="M1.516,42.919C1.181,45.232,1,47.594,1,50c0,0.216,0.013,0.428,0.016,0.643l54.168,48.081
		c2.601-0.274,5.138-0.757,7.601-1.421L1.516,42.919z"/>
	<path fill="#EA7D85" d="M19.954,11.307c-1.973,1.534-3.823,3.215-5.539,5.027l73.242,65.012c1.594-1.913,3.046-3.949,4.338-6.093
		L19.954,11.307z"/>
	<path fill="#EA7D85" d="M8.297,24.275c-1.527,2.47-2.833,5.087-3.908,7.823L73.192,93.17c2.58-1.389,5.014-3.009,7.291-4.82
		L8.297,24.275z"/>
	<path fill="#EA7D85" d="M36.965,2.767c-2.825,0.778-5.552,1.791-8.147,3.037l67.57,59.978c0.924-2.715,1.626-5.532,2.063-8.438
		L36.965,2.767z"/>
	<path fill="#EA7D85" d="M3.873,66.55c5.582,15.556,18.808,27.457,35.149,31.2L3.873,66.55z"/>
	<path fill="#EA7D85" d="M61.884,2.459c-3.794-0.945-7.759-1.455-11.845-1.458l48.6,43.139c-0.481-4.032-1.448-7.913-2.847-11.583
		L61.884,2.459z"/>
</g>
<polygon fill="#FFFFFF" points="70,80 30,80 30,20 59.75,20 60.75,20 64.75,26.5 70,30.625 "/>
<polygon fill="#DDDDDD" points="60.75,30.625 70,30.625 60.75,20 "/>
<g>
	<path fill="#939393" d="M46.625,40.875h-9.603c-0.552,0-1-0.448-1-1s0.448-1,1-1h9.603c0.552,0,1,0.448,1,1
		S47.177,40.875,46.625,40.875z"/>
</g>
<g>
	<path fill="#939393" d="M62.625,50.875H37.022c-0.552,0-1-0.448-1-1s0.448-1,1-1h25.603c0.553,0,1,0.448,1,1
		S63.178,50.875,62.625,50.875z"/>
</g>
<g>
	<path fill="#939393" d="M62.625,56.875H37.022c-0.552,0-1-0.447-1-1s0.448-1,1-1h25.603c0.553,0,1,0.447,1,1
		S63.178,56.875,62.625,56.875z"/>
</g>
<g>
	<path fill="#939393" d="M62.625,62.875H37.022c-0.552,0-1-0.447-1-1s0.448-1,1-1h25.603c0.553,0,1,0.447,1,1
		S63.178,62.875,62.625,62.875z"/>
</g>
</svg>
