<?xml version="1.0" encoding="utf-8"?>
<!-- Generator: Adobe Illustrator 17.1.0, SVG Export Plug-In . SVG Version: 6.00 Build 0)  -->
<!DOCTYPE svg PUBLIC "-//W3C//DTD SVG 1.1//EN" "http://www.w3.org/Graphics/SVG/1.1/DTD/svg11.dtd">
<svg version="1.1" id="Слой_1" xmlns="http://www.w3.org/2000/svg" xmlns:xlink="http://www.w3.org/1999/xlink" x="0px" y="0px"
	 viewBox="0 0 1000 1000" enable-background="new 0 0 1000 1000" xml:space="preserve">
<circle fill="#e0e195" cx="500" cy="500" r="500"/>
<path fill="#FFFFFF" d="M661.2,233.8H338.2c-56.1,0-101.8,45.6-101.8,101.8v107.5v215.6c0,56.1,45.7,101.8,101.8,101.8h323.1
	c56.1,0,101.8-45.6,101.8-101.8V443.1V335.6C763,279.5,717.4,233.8,661.2,233.8z M690.4,294.5l11.6,0v11.6v77.7l-89,0.3l-0.3-89.2
	L690.4,294.5z M424.6,443.1c16.9-23.3,44.2-38.6,75.2-38.6s58.3,15.3,75.1,38.6c11,15.2,17.5,33.9,17.5,54
	c0,51.1-41.6,92.7-92.7,92.7c-51.1,0-92.7-41.6-92.7-92.7C407,476.9,413.6,458.3,424.6,443.1z M711.7,658.6
	c0,27.8-22.6,50.5-50.5,50.5H338.2c-27.8,0-50.5-22.6-50.5-50.5V443.1h78.6c-6.8,16.7-10.6,34.9-10.6,54c0,79.4,64.6,144,144,144
	c79.4,0,144-64.6,144-144c0-19.1-3.8-37.3-10.6-54h78.6V658.6z"/>
</svg>
