<?xml version="1.0" encoding="utf-8"?>
<!-- Generator: Adobe Illustrator 17.0.0, SVG Export Plug-In . SVG Version: 6.00 Build 0)  -->
<!DOCTYPE svg PUBLIC "-//W3C//DTD SVG 1.1//EN" "http://www.w3.org/Graphics/SVG/1.1/DTD/svg11.dtd">
<svg version="1.1" id="Слой_1" xmlns="http://www.w3.org/2000/svg" xmlns:xlink="http://www.w3.org/1999/xlink" x="0px" y="0px"
	 width="50px" height="50px" viewBox="0 0 50 50" enable-background="new 0 0 50 50" xml:space="preserve">
<circle fill="#E0E296" cx="25" cy="25" r="25"/>
<path fill="#FFFFFF" d="M33.06,11.69H16.91c-2.805,0-5.09,2.28-5.09,5.09v5.375v10.78c0,2.805,2.285,5.09,5.09,5.09h16.155
	c2.805,0,5.09-2.28,5.09-5.09v-10.78V16.78C38.15,13.975,35.87,11.69,33.06,11.69z M34.52,14.725h0.58v0.58v3.885l-4.45,0.015
	l-0.015-4.46L34.52,14.725z M21.23,22.155c0.845-1.165,2.21-1.93,3.76-1.93c1.55,0,2.915,0.765,3.755,1.93
	c0.55,0.76,0.875,1.695,0.875,2.7c0,2.555-2.08,4.635-4.635,4.635s-4.635-2.08-4.635-4.635C20.35,23.845,20.68,22.915,21.23,22.155z
	 M35.585,32.93c0,1.39-1.13,2.525-2.525,2.525H16.91c-1.39,0-2.525-1.13-2.525-2.525V22.155h3.93c-0.34,0.835-0.53,1.745-0.53,2.7
	c0,3.97,3.23,7.2,7.2,7.2s7.2-3.23,7.2-7.2c0-0.955-0.19-1.865-0.53-2.7h3.93V32.93z"/>
</svg>
