<svg id="Слой_1" data-name="Слой 1" xmlns="http://www.w3.org/2000/svg" viewBox="0 0 110 110"><defs><style>.cls-1{fill:#36b493;}.cls-2{fill:#facb1b;}.cls-3{fill:#fbe158;}.cls-4{fill:#f3b607;}</style></defs><title>Безымянный-2</title><circle class="cls-1" cx="55" cy="55" r="55"/><path class="cls-2" d="M75,23L49.79,48.21a20.07,20.07,0,1,0,12,12L63,59V51h8V43h8V35h8V23H75ZM47.59,76.2a2.89,2.89,0,0,1-1.78,2.1A10.13,10.13,0,0,1,32.7,65.18a2.89,2.89,0,0,1,4.74-1l9.37,9.37A2.89,2.89,0,0,1,47.59,76.2Z"/><path class="cls-3" d="M87,23H75L49.79,48.21A20,20,0,0,0,29.22,81.47l5.6-5.6A10.12,10.12,0,0,1,32.7,65.18a2.89,2.89,0,0,1,4.74-1L42,68.73l45-45V23Z"/><path class="cls-4" d="M55,49a1.41,1.41,0,0,1,0-2L77,25h4L57,49A1.41,1.41,0,0,1,55,49Z"/></svg>