<svg xmlns="http://www.w3.org/2000/svg" width="283.747pt" height="266.672pt" viewBox="0 0 283.747 266.672"><defs><clipPath id="a"><path d="M0 0h283.746v266.672h-283.746zm0 0"/></clipPath></defs><g><path d="M239.832 78.871v1.926c-13.836 4.59-25.996 16.613-25.996 31.629v26.344l-56.887-3.574-22.211.012-71.699 3.723v-26.508c0-18.824-10.313-31.863-26-33.484v-.07c0-34.887 28.387-63.273 63.27-63.273h76.254c34.883.008 63.27 28.391 63.27 63.277m15.602 50.43c-1.148.316-2.285.637-3.641.816l-6.762.91v41.809c-.508-.152-1.023-.277-1.543-.402-1.91-.457-3.883-.727-5.922-.793-.297-.012-.594-.047-.891-.047h-196.477c-.301 0-.598.035-.898.047-.758.023-1.52.055-2.262.137v-40.746l-6.758-.91c-1.168-.156-2.406-.422-3.641-.77-1.801-.504-3.586-1.297-5.203-2.5-3.301-2.469-5.84-6.715-5.84-14.418 0-5.23 2.273-9.914 5.84-13.219 1.523-1.41 3.262-2.605 5.203-3.43 2.164-.914 4.539-1.422 7.035-1.422 1.242 0 2.34.16 3.363.406 9.563 2.223 10.398 13.832 10.398 17.664v42.938l87.703-4.57 21.313-.016 72.98 4.602v-42.965c0-5.922 4.57-11.305 10.398-14.625 1.652-.949 3.41-1.691 5.199-2.266 2.242-.719 4.535-1.176 6.719-1.176 1.285 0 2.504.16 3.68.426 7.547 1.703 12.715 8.586 12.715 17.645.004 5.23-1.836 13.848-12.711 16.875m-183.914 104.691l-4.676 9.07-4.715-9.07zm153.059 0l-4.676 9.07-4.707-9.07zm20.02-18.207c-2.117 1.535-4.684 2.469-7.477 2.559l-.445.047h-196.48c-7.477 0-13.563-6.086-13.563-13.563v-4.074c0-3.168 1.137-6.055 2.969-8.359.25-.313.496-.645.777-.934 1.008-1.066 2.199-1.934 3.504-2.629 1.895-1.008 4.023-1.633 6.316-1.633h196.465c.629 0 1.219.109 1.824.184 3.133.43 5.926 1.887 7.996 4.078.285.297.523.621.781.934 1.828 2.309 2.965 5.191 2.965 8.359v4.074c0 4.512-2.234 8.488-5.633 10.957m10.836-136.809v-.105c0-43.484-35.383-78.871-78.871-78.871h-76.25c-43.488 0-78.871 35.383-78.871 78.871v2.223c-12.531 4.906-21.441 17.086-21.441 31.332 0 16.164 7.715 27.402 21.438 31.68v34.355c-6.348 5.363-10.398 13.355-10.398 22.293v4.074c0 16.086 13.082 29.16 29.16 29.16h4.348l.246.473 12.957 24.938c1.379 2.723 3.676 7.273 9.109 7.273h.004c3.313 0 6.355-1.934 7.949-5.043l14.254-27.641h108.551l.57 1.113 12.625 24.297c1.285 2.539 3.684 7.273 9.117 7.273h.004c3.355 0 6.32-1.891 7.941-5.043l14.555-28.215c13.328-2.68 23.402-14.473 23.402-28.59v-4.07c0-6.156-1.93-11.863-5.199-16.574v-40.055c14.422-4.391 23.113-16.047 23.113-31.699 0-17.875-11.941-31.645-28.313-33.449" clip-path="url(#a)"/><path d="M110.703 68.461c10.063 0 10.063-15.598 0-15.598-10.059 0-10.059 15.598 0 15.598"/><path d="M165.305 67.598c10.059 0 10.059-15.598 0-15.598-10.063 0-10.063 15.598 0 15.598"/><path d="M110.703 110.063c10.063 0 10.063-15.602 0-15.602-10.059 0-10.059 15.602 0 15.602"/><path d="M165.305 109.195c10.059 0 10.059-15.598 0-15.598-10.063 0-10.063 15.598 0 15.598"/></g></svg>