<svg xmlns="http://www.w3.org/2000/svg" width="49.999pt" height="50pt" viewBox="0 0 49.9992 50"><g data-fill="rgb(0.392151%,0%,0.784302%)"><path d="M42.176 21.219l-2.207 2.207c-.309.309-.801.309-1.105 0l-2.766-2.762-2.234 5.609.184-.473c-4.703-4.695-9.48-5.289-13.793-5.816-1.387-.172-2.73-.352-4.051-.633l13.266-5.316-2.68-2.68c-.305-.305-.305-.801 0-1.105l2.211-2.211c.305-.305.797-.305 1.105 0l12.066 12.074c.309.305.309.801.004 1.105m-16.145 24.668c-.195.488-.621.848-1.137.953-.117.027-.238.035-.359.035-.395-.008-.777-.168-1.063-.457l-19.891-19.668c-.363-.363-.523-.887-.43-1.395.098-.508.438-.934.91-1.141l9.715-3.891c6.547 2.176 13.094.078 19.641 7.066zm6.285-40.055c-.742-.738-1.719-1.145-2.762-1.145-1.047 0-2.027.406-2.77 1.145l-2.203 2.207c-.738.738-1.145 1.719-1.145 2.762 0 .738.199 1.441.578 2.055l-21.211 8.496c-1.418.625-2.437 1.906-2.723 3.422-.289 1.527.195 3.094 1.305 4.199l19.875 19.656c.855.855 1.992 1.34 3.195 1.371h.117c.316 0 .637-.035.953-.098 1.555-.32 2.828-1.395 3.402-2.855l8.348-20.898c.629.414 1.367.633 2.137.633 1.047 0 2.027-.406 2.762-1.145l2.199-2.199c.746-.742 1.152-1.723 1.152-2.77s-.41-2.031-1.145-2.762zm0 0"/><path d="M25.781 26.563c1.293 0 2.344 1.051 2.344 2.344s-1.051 2.344-2.344 2.344c-1.297 0-2.344-1.051-2.344-2.344s1.047-2.344 2.344-2.344m0 6.25c2.152 0 3.906-1.754 3.906-3.906 0-2.156-1.754-3.906-3.906-3.906-2.156 0-3.906 1.75-3.906 3.906 0 2.152 1.754 3.906 3.906 3.906"/><path d="M46.094 6.25c-1.293 0-2.344-1.051-2.344-2.344s1.051-2.344 2.344-2.344 2.344 1.051 2.344 2.344-1.051 2.344-2.344 2.344m0-6.25c-2.152 0-3.906 1.754-3.906 3.906 0 2.156 1.754 3.906 3.906 3.906s3.906-1.75 3.906-3.906c0-2.152-1.754-3.906-3.906-3.906"/><path d="M15.625 25c.863 0 1.563.699 1.563 1.563 0 .863-.699 1.563-1.563 1.563-.863 0-1.563-.699-1.563-1.563 0-.863.699-1.563 1.563-1.563m-3.125 1.563c0 1.723 1.402 3.125 3.125 3.125s3.125-1.402 3.125-3.125-1.402-3.125-3.125-3.125-3.125 1.402-3.125 3.125"/><path d="M20.313 34.375c.863 0 1.563.699 1.563 1.563 0 .863-.699 1.563-1.563 1.563-.863 0-1.563-.699-1.563-1.563 0-.863.699-1.563 1.563-1.563"/><path d="M45.313 10.938c.863 0 1.563.699 1.563 1.563 0 .863-.699 1.563-1.563 1.563-.863 0-1.563-.699-1.563-1.563 0-.863.699-1.563 1.563-1.563"/></g></svg>