<?xml version="1.0" encoding="utf-8"?>
<!-- Generator: Adobe Illustrator 19.2.0, SVG Export Plug-In . SVG Version: 6.00 Build 0)  -->
<svg version="1.1" id="Слой_1" xmlns="http://www.w3.org/2000/svg" xmlns:xlink="http://www.w3.org/1999/xlink" x="0px" y="0px"
	 viewBox="0 0 98 98" style="enable-background:new 0 0 98 98;" xml:space="preserve">
<style type="text/css">
	.st0{fill:#F98373;}
	.st1{fill:#FEB292;}
	.st2{fill:#CED55A;stroke:#E7ECA1;stroke-width:4;stroke-miterlimit:10;}
	.st3{fill:#6A6967;}
	.st4{fill:#6B6967;}
	.st5{fill:#7C7D7C;}
	.st6{fill:#A8D6EB;}
	.st7{fill:#92D7EC;}
	.st8{fill:#BBE3F5;}
	.st9{fill:#A9E4F6;}
</style>
<g>
	<circle class="st0" cx="49" cy="49" r="49"/>
</g>
<g>
	<path class="st1" d="M0.5,41.9C0.2,44.2,0,46.6,0,49c0,0.2,0,0.4,0,0.6l54.2,48.1c2.6-0.3,5.1-0.8,7.6-1.4L0.5,41.9z"/>
	<path class="st1" d="M19,10.3c-2,1.5-3.8,3.2-5.5,5l73.2,65c1.6-1.9,3-3.9,4.3-6.1L19,10.3z"/>
	<path class="st1" d="M7.3,23.3c-1.5,2.5-2.8,5.1-3.9,7.8l68.8,61.1c2.6-1.4,5-3,7.3-4.8L7.3,23.3z"/>
	<path class="st1" d="M36,1.8c-2.8,0.8-5.6,1.8-8.1,3l67.6,60c0.9-2.7,1.6-5.5,2.1-8.4L36,1.8z"/>
	<path class="st1" d="M2.9,65.6C8.5,81.1,21.7,93,38,96.8L2.9,65.6z"/>
	<path class="st1" d="M60.9,1.5C57.1,0.5,53.1,0,49,0l48.6,43.1c-0.5-4-1.4-7.9-2.8-11.6L60.9,1.5z"/>
</g>
<path class="st2" d="M93,84"/>
<path class="st2" d="M13,3"/>
<g>
	<path class="st3" d="M73,91.7c-0.7,0.4-1.4,0.8-2.2,1.2 M27.3,92.9c-0.7-0.4-1.5-0.7-2.2-1.2"/>
	<path class="st4" d="M66.5,22.2h-2.2V20h-6.5v2.2H31.6c-3.7,0-6.5,2.8-6.5,6.5v63.1c0.7,0.4,1.4,0.8,2.2,1.2V33.1h43.6v59.8
		c0.7-0.4,1.5-0.8,2.2-1.2v-63C73,25,70.2,22.2,66.5,22.2z M47.1,24.4h4.1c0.7,0,1.1,0.4,1.1,1.1s-0.4,1.1-1.1,1.1h-4.1
		c-0.7,0-1.1-0.4-1.1-1.1C46,24.8,46.4,24.4,47.1,24.4z M53.4,30.9h-8.5c-0.7,0-1.1-0.4-1.1-1.1s0.4-1.1,1.1-1.1h8.5
		c0.7,0,1.1,0.4,1.1,1.1S54.1,30.9,53.4,30.9z"/>
	<path class="st5" d="M53.4,28.7h-8.5c-0.7,0-1.1,0.4-1.1,1.1s0.4,1.1,1.1,1.1h8.5c0.7,0,1.1-0.4,1.1-1.1S54.1,28.7,53.4,28.7z
		 M44.9,29.8h8.5H44.9z"/>
	<path class="st5" d="M47.1,26.5h4.1c0.7,0,1.1-0.4,1.1-1.1s-0.4-1.1-1.1-1.1h-4.1c-0.7,0-1.1,0.4-1.1,1.1
		C46,26.1,46.4,26.5,47.1,26.5z M51.2,25.4h-4.1H51.2z"/>
	<path class="st6" d="M65,95.3C60,97,54.6,98,49,98c-7.8,0-15.2-1.8-21.7-5.1"/>
	<path class="st7" d="M65,95.3L27.3,33.1v59.9C33.8,96.2,41.2,98,49,98C54.6,98,60,97,65,95.3z"/>
	<path class="st8" d="M70.8,92.9c-1.9,0.9-3.8,1.8-5.8,2.4"/>
	<path class="st9" d="M70.8,92.9V33.1H27.3L65,95.3C67,94.6,68.9,93.8,70.8,92.9z"/>
</g>
</svg>
