<?xml version="1.0" encoding="utf-8"?>
<!-- Generator: Adobe Illustrator 17.0.0, SVG Export Plug-In . SVG Version: 6.00 Build 0)  -->
<!DOCTYPE svg PUBLIC "-//W3C//DTD SVG 1.1//EN" "http://www.w3.org/Graphics/SVG/1.1/DTD/svg11.dtd">
<svg version="1.1" id="Слой_1" xmlns="http://www.w3.org/2000/svg" xmlns:xlink="http://www.w3.org/1999/xlink" x="0px" y="0px"
	 width="100px" height="100px" viewBox="0 0 100 100" enable-background="new 0 0 100 100" xml:space="preserve">
<g>
	<circle fill="#DF8273" cx="50" cy="50" r="49"/>
</g>
<g>
	<path fill="#EBB192" d="M1.516,42.919C1.181,45.232,1,47.594,1,50c0,0.216,0.013,0.428,0.016,0.643l54.168,48.081
		c2.601-0.274,5.138-0.757,7.601-1.421L1.516,42.919z"/>
	<path fill="#EBB192" d="M19.954,11.307c-1.973,1.534-3.823,3.215-5.539,5.027l73.242,65.012c1.594-1.913,3.046-3.949,4.338-6.093
		L19.954,11.307z"/>
	<path fill="#EBB192" d="M8.297,24.275c-1.527,2.47-2.833,5.087-3.908,7.823L73.192,93.17c2.58-1.389,5.014-3.009,7.291-4.82
		L8.297,24.275z"/>
	<path fill="#EBB192" d="M36.965,2.767c-2.825,0.778-5.552,1.791-8.147,3.037l67.57,59.978c0.924-2.715,1.626-5.532,2.063-8.438
		L36.965,2.767z"/>
	<path fill="#EBB192" d="M3.873,66.55c5.582,15.556,18.808,27.457,35.149,31.2L3.873,66.55z"/>
	<path fill="#EBB192" d="M61.884,2.459c-3.794-0.945-7.759-1.455-11.845-1.458l48.6,43.139c-0.481-4.032-1.448-7.913-2.847-11.583
		L61.884,2.459z"/>
</g>
<path fill="#CED55A" stroke="#E7ECA1" stroke-width="4" stroke-miterlimit="10" d="M94,85"/>
<path fill="#CED55A" stroke="#E7ECA1" stroke-width="4" stroke-miterlimit="10" d="M14,4"/>
<g>
	<path fill="#6A6967" d="M74,92.716c-0.715,0.403-1.441,0.789-2.178,1.156 M28.267,93.917c-0.737-0.365-1.462-0.749-2.178-1.15"/>
	<path fill="#6A6967" d="M67.467,23.178h-2.178V21h-6.533v2.178H32.622c-3.702,0-6.533,2.831-6.533,6.533v63.056
		c0.715,0.401,1.441,0.785,2.178,1.15V34.067h43.556v59.805c0.737-0.367,1.463-0.753,2.178-1.156V29.711
		C74,26.009,71.169,23.178,67.467,23.178z M48.084,25.356h4.138c0.653,0,1.089,0.436,1.089,1.089c0,0.653-0.436,1.089-1.089,1.089
		h-4.138c-0.653,0-1.089-0.436-1.089-1.089C46.996,25.791,47.431,25.356,48.084,25.356z M54.4,31.889h-8.493
		c-0.653,0-1.089-0.436-1.089-1.089s0.436-1.089,1.089-1.089H54.4c0.653,0,1.089,0.436,1.089,1.089S55.053,31.889,54.4,31.889z"/>
	<path fill="#7C7D7C" d="M54.4,29.711h-8.493c-0.653,0-1.089,0.436-1.089,1.089s0.436,1.089,1.089,1.089H54.4
		c0.653,0,1.089-0.436,1.089-1.089S55.053,29.711,54.4,29.711z M45.907,30.8H54.4H45.907z"/>
	<path fill="#7C7D7C" d="M48.084,27.533h4.138c0.653,0,1.089-0.436,1.089-1.089c0-0.653-0.436-1.089-1.089-1.089h-4.138
		c-0.653,0-1.089,0.436-1.089,1.089C46.996,27.098,47.431,27.533,48.084,27.533z M52.222,26.444h-4.138H52.222z"/>
	<path fill="#A8D6EB" d="M65.993,96.316C60.979,98.047,55.602,99,50,99c-7.807,0-15.183-1.835-21.733-5.083"/>
	<path fill="#A8D6EB" d="M65.993,96.316L28.267,34.067v59.851C34.817,97.165,42.193,99,50,99C55.602,99,60.979,98.047,65.993,96.316
		z"/>
	<path fill="#BBE3F5" d="M71.822,93.872c-1.878,0.936-3.824,1.752-5.829,2.444"/>
	<path fill="#BBE3F5" d="M71.822,93.872V34.067H28.267l37.727,62.249C67.998,95.623,69.945,94.807,71.822,93.872z"/>
</g>
</svg>
