<svg id="Слой_1" data-name="Слой 1" xmlns="http://www.w3.org/2000/svg" viewBox="0 0 98 98"><defs><style>.cls-1{fill:#f98373;}.cls-2{fill:#feb292;}.cls-3{fill:#ced55a;stroke:#e7eca1;stroke-miterlimit:10;stroke-width:4px;}.cls-4{fill:#6a6967;}.cls-5{fill:#6b6967;}.cls-6{fill:#7c7d7c;}.cls-7{fill:#a8d6eb;}.cls-8{fill:#92d7ec;}.cls-9{fill:#bbe3f5;}.cls-10{fill:#a9e4f6;}</style></defs><title>mobile</title><circle class="cls-1" cx="49" cy="49" r="49"/><path class="cls-2" d="M0.52,41.92A49.35,49.35,0,0,0,0,49c0,0.22,0,.43,0,0.64L54.18,97.72a48.84,48.84,0,0,0,7.6-1.42Z"/><path class="cls-2" d="M19,10.31a49.34,49.34,0,0,0-5.54,5l73.24,65A49.14,49.14,0,0,0,91,74.25Z"/><path class="cls-2" d="M7.3,23.27A48.82,48.82,0,0,0,3.39,31.1l68.8,61.07a49.15,49.15,0,0,0,7.29-4.82Z"/><path class="cls-2" d="M36,1.77a48.66,48.66,0,0,0-8.15,3l67.57,60a48.61,48.61,0,0,0,2.06-8.44Z"/><path class="cls-2" d="M2.87,65.55A49.08,49.08,0,0,0,38,96.75Z"/><path class="cls-2" d="M60.88,1.46A49.09,49.09,0,0,0,49,0l48.6,43.14a48.68,48.68,0,0,0-2.85-11.58Z"/><path class="cls-3" d="M93,84"/><path class="cls-3" d="M13,3"/><path class="cls-4" d="M73,91.72q-1.07.6-2.18,1.16m-43.55,0q-1.11-.55-2.18-1.15"/><path class="cls-5" d="M66.47,22.18H64.29V20H57.76v2.18H31.62a6.42,6.42,0,0,0-6.53,6.53V91.77q1.07,0.6,2.18,1.15V33.07H70.82V92.87q1.11-.55,2.18-1.16v-63A6.42,6.42,0,0,0,66.47,22.18ZM47.08,24.36h4.14a1.09,1.09,0,0,1,0,2.18H47.08A1.09,1.09,0,0,1,47.08,24.36Zm6.32,6.53H44.91a1.09,1.09,0,1,1,0-2.18H53.4A1.09,1.09,0,1,1,53.4,30.89Z"/><path class="cls-6" d="M53.4,28.71H44.91a1.09,1.09,0,1,0,0,2.18H53.4A1.09,1.09,0,0,0,53.4,28.71ZM44.91,29.8h0Z"/><path class="cls-6" d="M47.08,26.53h4.14a1.09,1.09,0,0,0,0-2.18H47.08A1.09,1.09,0,0,0,47.08,26.53Zm4.14-1.09h0Z"/><path class="cls-7" d="M65,95.32a49,49,0,0,1-37.73-2.4"/><path class="cls-8" d="M65,95.32L27.27,33.07V92.92A49,49,0,0,0,65,95.32Z"/><path class="cls-9" d="M70.82,92.87A48.63,48.63,0,0,1,65,95.32"/><path class="cls-10" d="M70.82,92.87V33.07H27.27L65,95.32A48.94,48.94,0,0,0,70.82,92.87Z"/></svg>