<svg xmlns="http://www.w3.org/2000/svg" width="50pt" height="45.312pt" viewBox="0 0 49.9996 45.3123"><path d="M45.879 4.121c-5.488-5.496-14.395-5.496-19.883 0l-22.797 22.523c-4.266 4.266-4.266 11.207 0 15.469 4.262 4.266 11.203 4.266 15.465 0l22.797-22.527c3.051-3.051 3.051-7.996 0-11.047-3.055-3.051-8-3.051-11.047 0l-17.137 17.137c-.613.613-.613 1.598 0 2.211.609.609 1.598.609 2.207 0l17.141-17.137c1.828-1.828 4.797-1.828 6.625 0 1.828 1.828 1.828 4.801 0 6.629l-22.793 22.523c-3.055 3.055-7.996 3.055-11.047 0-3.055-3.051-3.055-7.996 0-11.047l22.57-22.305c4.273-4.273 11.199-4.273 15.465 0 4.277 4.273 4.277 11.195.004 15.465l-16.914 16.918c-.613.613-.613 1.598 0 2.207.609.613 1.598.613 2.211 0l17.133-17.137c5.496-5.488 5.496-14.395 0-19.883" data-fill="rgb(0.392151%,0%,0.784302%)"/></svg>