<?xml version="1.0" encoding="utf-8"?>
<!-- Generator: Adobe Illustrator 17.1.0, SVG Export Plug-In . SVG Version: 6.00 Build 0)  -->
<!DOCTYPE svg PUBLIC "-//W3C//DTD SVG 1.1//EN" "http://www.w3.org/Graphics/SVG/1.1/DTD/svg11.dtd">
<svg version="1.1" id="Слой_1" xmlns="http://www.w3.org/2000/svg" xmlns:xlink="http://www.w3.org/1999/xlink" x="0px" y="0px"
	 viewBox="0 0 40 40" enable-background="new 0 0 40 40" xml:space="preserve">
<circle fill="#cfd45a" cx="20" cy="20" r="20"/>
<g id="Forma_1">
	<g>
		<path fill-rule="evenodd" clip-rule="evenodd" fill="#FFFFFF" d="M26.2,22.3c0.4-0.5,0.4-1,0.1-1.6c-0.3-0.5-0.9-0.7-1.4-0.6
			c-0.3,0.1-0.6,0.2-0.8,0.4c-2.5,1.7-5.8,1.6-8.3-0.1c-0.1-0.1-0.2-0.2-0.4-0.2c-0.7-0.3-1.3-0.2-1.7,0.4c-0.5,0.7-0.4,1.3,0.2,1.8
			c0.1,0.1,0.3,0.3,0.5,0.4c1.3,1,2.8,1.5,4.5,1.6c-0.1,0.1-0.2,0.2-0.3,0.3c-1.2,1.3-2.5,2.5-3.7,3.8c-0.3,0.3-0.4,0.5-0.5,0.9
			c0,0.6,0.3,1.1,0.9,1.4c0.5,0.2,1,0.2,1.5-0.3c1-1,2-2,2.9-2.9c0.2-0.2,0.4-0.3,0.6,0c0.9,1,1.9,1.9,2.9,2.9
			c0.2,0.3,0.5,0.4,0.9,0.5c0.6,0,1.1-0.3,1.4-0.9c0.2-0.5,0.1-1.1-0.3-1.5c-1.3-1.3-2.5-2.6-3.8-3.8c-0.1-0.1-0.2-0.2-0.3-0.3
			c0.9-0.1,1.9-0.3,2.7-0.6C24.7,23.5,25.6,23,26.2,22.3z M20,20.1c3.1,0,5.6-2.5,5.6-5.5c0-3.1-2.4-5.7-5.5-5.7
			c-3.1,0-5.6,2.5-5.6,5.6C14.4,17.6,16.9,20.1,20,20.1z M20,11.8c1.5,0,2.7,1.2,2.7,2.7c0,1.5-1.2,2.7-2.7,2.7
			c-1.5,0-2.7-1.2-2.7-2.7C17.3,13,18.5,11.8,20,11.8z"/>
	</g>
</g>
</svg>
