<?xml version="1.0" encoding="utf-8"?>
<!-- Generator: Adobe Illustrator 17.0.0, SVG Export Plug-In . SVG Version: 6.00 Build 0)  -->
<!DOCTYPE svg PUBLIC "-//W3C//DTD SVG 1.1//EN" "http://www.w3.org/Graphics/SVG/1.1/DTD/svg11.dtd">
<svg version="1.1" id="Слой_1" xmlns="http://www.w3.org/2000/svg" xmlns:xlink="http://www.w3.org/1999/xlink" x="0px" y="0px"
	 width="50px" height="50px" viewBox="0 0 50 50" enable-background="new 0 0 50 50" xml:space="preserve">
<circle fill="#CED55A" cx="25" cy="25" r="25"/>
<g id="Forma_1">
	<g>
		<path fill="#FFFFFF" d="M32.75,27.875c0.5-0.625,0.5-1.25,0.125-2C32.5,25.25,31.75,25,31.125,25.125
			c-0.375,0.125-0.75,0.25-1,0.5c-3.125,2.125-7.25,2-10.375-0.125c-0.125-0.125-0.25-0.25-0.5-0.25
			c-0.875-0.375-1.625-0.25-2.125,0.5c-0.625,0.875-0.5,1.625,0.25,2.25C17.5,28.125,17.75,28.375,18,28.5
			c1.625,1.25,3.5,1.875,5.625,2c-0.125,0.125-0.25,0.25-0.375,0.375c-1.5,1.625-3.125,3.125-4.625,4.75
			C18.25,36,18.125,36.25,18,36.75c0,0.75,0.375,1.375,1.125,1.75c0.625,0.25,1.25,0.25,1.875-0.375c1.25-1.25,2.5-2.5,3.625-3.625
			c0.25-0.25,0.5-0.375,0.75,0C26.5,35.75,27.75,36.875,29,38.125c0.25,0.375,0.625,0.5,1.125,0.625c0.75,0,1.375-0.375,1.75-1.125
			C32.125,37,32,36.25,31.5,35.75c-1.625-1.625-3.125-3.25-4.75-4.75c-0.125-0.125-0.25-0.25-0.375-0.375
			c1.125-0.125,2.375-0.375,3.375-0.75C30.875,29.375,32,28.75,32.75,27.875z M25,25.125c3.875,0,7-3.125,7-6.875
			c0-3.875-3-7.125-6.875-7.125s-7,3.125-7,7C18,22,21.125,25.125,25,25.125z M25,14.75c1.875,0,3.375,1.5,3.375,3.375
			S26.875,21.5,25,21.5s-3.375-1.5-3.375-3.375C21.625,16.25,23.125,14.75,25,14.75z"/>
	</g>
</g>
</svg>
