<svg id="Слой_1" data-name="Слой 1" xmlns="http://www.w3.org/2000/svg" viewBox="0 0 110 110"><defs><style>.cls-1{fill:#36b493;}.cls-2{fill:#fff;}.cls-3{fill:#f79392;}.cls-4{fill:#df2c2c;}.cls-5{fill:#fa5655;}.cls-6{fill:#fbec9a;}.cls-7{fill:#fbe158;}.cls-8{fill:#facb1b;}.cls-9{fill:#40c9e7;}.cls-10{fill:#21b2d1;}.cls-11{fill:#059bbf;}.cls-12{fill:#0484ab;}</style></defs><title>Безымянный-2</title><circle class="cls-1" cx="55" cy="55" r="55"/><path class="cls-2" d="M83,67H43V83a4,4,0,0,1-4,4H83a4,4,0,0,0,4-4V71A4,4,0,0,0,83,67Z"/><rect class="cls-3" x="63" y="71" width="6" height="12"/><rect class="cls-3" x="73" y="71" width="6" height="12"/><polygon class="cls-4" points="43 82.05 43 83 49 83 49 78.84 43 82.05"/><polygon class="cls-5" points="53 76.71 53 83 59 83 59 73.5 53 76.71"/><path class="cls-2" d="M83.11,56L77.29,45.52A4,4,0,0,0,71.85,44L43,59.38V82l38.56-20.6A4,4,0,0,0,83.11,56Z"/><rect class="cls-6" x="67.59" y="50.11" width="6" height="12" transform="translate(-18.37 41.36) rotate(-29.06)"/><rect class="cls-7" x="58.84" y="54.97" width="6" height="12" transform="translate(-21.83 37.72) rotate(-29.06)"/><polygon class="cls-8" points="45.41 76.97 49.9 74.47 48.38 71.74 45.41 76.97"/><polygon class="cls-8" points="50.69 67.66 53.4 72.53 58.64 69.61 54.16 61.55 50.69 67.66"/><path class="cls-2" d="M65.55,33.5L55.21,27.41a4,4,0,0,0-5.48,1.42L43,40.7V81.22L67,39A4,4,0,0,0,65.55,33.5Z"/><rect class="cls-9" x="51.8" y="33.94" width="6" height="12" transform="matrix(0.51, -0.86, 0.86, 0.51, -7.41, 66.92)"/><rect class="cls-10" x="46.73" y="42.56" width="6" height="12" transform="translate(-17.34 66.8) rotate(-59.53)"/><polygon class="cls-11" points="43 52.72 43 59.68 48.31 62.8 51.35 57.63 43 52.72"/><polygon class="cls-12" points="43 64.32 43 71.28 43.24 71.42 46.28 66.25 43 64.32"/><path class="cls-4" d="M39,23H27a4,4,0,0,0-4,4V83a4,4,0,0,0,4,4H39a4,4,0,0,0,4-4V27A4,4,0,0,0,39,23ZM33,79a2,2,0,1,1,2-2A2,2,0,0,1,33,79Z"/><path class="cls-5" d="M43,36.36V27a4,4,0,0,0-4-4H27a4,4,0,0,0-4,4V56.36Z"/><path class="cls-2" d="M30.64,70.29a0.48,0.48,0,0,1-.49-0.49V68.12A1.85,1.85,0,0,1,32,66h0a1.94,1.94,0,0,1,1.88,2.2v1.09h1.33a0.48,0.48,0,0,1,0,1H30.64ZM33,68.2A1,1,0,0,0,32,67h0a1,1,0,0,0-1,1.19v1.13h2V68.2Z"/><path class="cls-2" d="M35,65.79l-4.57-2a0.61,0.61,0,0,1-.39-0.58v0a0.6,0.6,0,0,1,.39-0.57l4.57-2a0.42,0.42,0,0,1,.2-0.06,0.45,0.45,0,0,1,.46.46,0.5,0.5,0,0,1-.34.47l-1,.45v2.68L35.4,65a0.47,0.47,0,0,1,.31.45,0.44,0.44,0,0,1-.45.45A0.5,0.5,0,0,1,35,65.79Zm-1.56-3.61-2.23,1,2.23,1V62.18Z"/><path class="cls-2" d="M30.61,59.38a0.49,0.49,0,0,1-.49-0.49v-0.1a0.61,0.61,0,0,1,.28-0.5L34,55.53H30.59a0.48,0.48,0,0,1,0-1h4.63a0.47,0.47,0,0,1,.48.47v0a0.61,0.61,0,0,1-.29.5l-3.67,2.83h3.5a0.48,0.48,0,0,1,0,1H30.61Z"/><path class="cls-2" d="M31.05,51.8v1.34a0.45,0.45,0,1,1-.9,0V49.48a0.45,0.45,0,0,1,.9,0v1.35h4.17a0.49,0.49,0,0,1,0,1H31.05Z"/><path class="cls-2" d="M32.93,48.6h0a2.88,2.88,0,0,1,0-5.76h0A2.88,2.88,0,0,1,32.93,48.6Zm0-4.75h0a1.89,1.89,0,0,0-2,1.87,1.86,1.86,0,0,0,1.94,1.86h0a1.88,1.88,0,0,0,2-1.87A1.86,1.86,0,0,0,32.93,43.85Z"/><path class="cls-2" d="M30.61,41.65a0.49,0.49,0,0,1-.49-0.49v-0.1a0.61,0.61,0,0,1,.28-0.5L34,37.8H30.59a0.48,0.48,0,0,1,0-1h4.63a0.47,0.47,0,0,1,.48.47v0a0.61,0.61,0,0,1-.29.5L31.74,40.7h3.5a0.48,0.48,0,0,1,0,1H30.61Z"/><path class="cls-2" d="M35.18,35.43H30.64a0.48,0.48,0,0,1-.49-0.49v-3.2a0.44,0.44,0,0,1,.43-0.43,0.43,0.43,0,0,1,.43.43v2.72h1.43V32.09a0.44,0.44,0,0,1,.44-0.43,0.43,0.43,0,0,1,.43.43v2.37H34.8V31.7a0.44,0.44,0,0,1,.43-0.43,0.43,0.43,0,0,1,.43.43v3.24A0.48,0.48,0,0,1,35.18,35.43Z"/></svg>