<?xml version="1.0" encoding="UTF-8" standalone="no"?>
<!-- Generator: Adobe Illustrator 17.1.0, SVG Export Plug-In . SVG Version: 6.00 Build 0)  -->

<svg
   xmlns:dc="http://purl.org/dc/elements/1.1/"
   xmlns:cc="http://creativecommons.org/ns#"
   xmlns:rdf="http://www.w3.org/1999/02/22-rdf-syntax-ns#"
   xmlns:svg="http://www.w3.org/2000/svg"
   xmlns="http://www.w3.org/2000/svg"
   xmlns:sodipodi="http://sodipodi.sourceforge.net/DTD/sodipodi-0.dtd"
   xmlns:inkscape="http://www.inkscape.org/namespaces/inkscape"
   version="1.1"
   id="Capa_1"
   x="0px"
   y="0px"
   viewBox="0 0 126.7 126.7"
   enable-background="new 0 0 126.7 126.7"
   xml:space="preserve"
   inkscape:version="0.91 r13725"
   sodipodi:docname="rating-star.svg"><metadata
     id="metadata11"><rdf:RDF><cc:Work
         rdf:about=""><dc:format>image/svg+xml</dc:format><dc:type
           rdf:resource="http://purl.org/dc/dcmitype/StillImage" /></cc:Work></rdf:RDF></metadata><defs
     id="defs9" /><sodipodi:namedview
     pagecolor="#ffffff"
     bordercolor="#666666"
     borderopacity="1"
     objecttolerance="10"
     gridtolerance="10"
     guidetolerance="10"
     inkscape:pageopacity="0"
     inkscape:pageshadow="2"
     inkscape:window-width="689"
     inkscape:window-height="480"
     id="namedview7"
     showgrid="false"
     inkscape:zoom="1.8626678"
     inkscape:cx="63.886863"
     inkscape:cy="63.349998"
     inkscape:window-x="0"
     inkscape:window-y="0"
     inkscape:window-maximized="0"
     inkscape:current-layer="g3" /><g
     id="g3"><path
       fill="#F8E572"
       d="M121.2,44.2l-34.9-3.3c-2.2-0.2-4.1-1.6-5-3.7L68.8,6.9c-2-5-9.1-5-11.1,0L45.3,37.2c-0.8,2.1-2.8,3.5-5,3.7L5.4,44.2   c-5.2,0.5-7.3,7-3.4,10.5l26.3,23.1c1.7,1.5,2.4,3.7,1.9,5.9l-7.9,32.4c-1.2,5.1,4.3,9.3,8.9,6.6l29.1-17.1c1.9-1.1,4.2-1.1,6.1,0   l29.1,17.1c4.6,2.7,10.1-1.4,8.9-6.6l-7.8-32.4c-0.5-2.2,0.2-4.4,1.9-5.9l26.3-23.1C128.6,51.2,126.4,44.7,121.2,44.2z"
       id="path5"
       style="fill:#ccd64e;fill-opacity:1" /></g></svg>