<?xml version="1.0" encoding="utf-8"?>
<!-- Generator: Adobe Illustrator 17.1.0, SVG Export Plug-In . SVG Version: 6.00 Build 0)  -->
<!DOCTYPE svg PUBLIC "-//W3C//DTD SVG 1.1//EN" "http://www.w3.org/Graphics/SVG/1.1/DTD/svg11.dtd">
<svg version="1.1" id="Capa_1" xmlns="http://www.w3.org/2000/svg" xmlns:xlink="http://www.w3.org/1999/xlink" x="0px" y="0px"
	 viewBox="0 0 344.4 344.4" enable-background="new 0 0 344.4 344.4" xml:space="preserve">
<g>
	<g>
		<path d="M334.5,37.5c-6.8-1.4-13.4,2.9-14.8,9.6l-9.1,42.4c-28.9-49.3-82-80.3-140.2-80.3C80.8,9.2,7.9,82.1,7.9,171.7
			c0,6.9,5.6,12.5,12.5,12.5c6.9,0,12.5-5.6,12.5-12.5c0-75.8,61.7-137.5,137.5-137.5c49.4,0,94.5,26.4,118.9,68.4l-41.7-8.9
			c-6.8-1.4-13.4,2.9-14.8,9.6c-1.4,6.8,2.9,13.4,9.6,14.8l71.5,15.3c1.2,0.3,2.4,0.3,3.7,0.2c2-0.2,4-0.8,5.7-2
			c2.8-1.8,4.7-4.6,5.4-7.9l15.3-71.5C345.5,45.6,341.2,38.9,334.5,37.5z"/>
		<path d="M321.9,155.3c-6.9,0.2-12.3,6-12.1,12.9c1.2,36.7-11.9,71.7-37,98.5c-25.1,26.8-59.1,42.2-95.8,43.5
			c-1.5,0-3.1,0.1-4.6,0.1c-47.9,0-92-24.9-116.9-65.2l43.4,11.6c6.7,1.8,13.5-2.2,15.3-8.8c1.8-6.7-2.2-13.5-8.8-15.3l-70.7-18.9
			c-3.2-0.9-6.6-0.4-9.5,1.2c-2.9,1.7-5,4.4-5.8,7.6L0.4,293.1c-1.8,6.7,2.2,13.5,8.8,15.3c1.1,0.3,2.2,0.4,3.2,0.4
			c5.5,0,10.6-3.7,12.1-9.3l10.6-39.7c29.6,46.6,81.2,75.4,137.1,75.4c1.8,0,3.6,0,5.4-0.1c43.4-1.4,83.6-19.7,113.3-51.4
			s45.2-73,43.8-116.4C334.6,160.5,328.8,155,321.9,155.3z"/>
	</g>
</g>
</svg>
