<svg xmlns="http://www.w3.org/2000/svg" width="50pt" height="43.75pt" viewBox="0 0 50 43.75"><path d="M45.664 10.898c.707-.164 1.211-.797 1.211-1.523 0-.73-.504-1.359-1.211-1.523l-20.313-4.688-.352-.039-.352.039-20.313 4.688c-.711.164-1.211.793-1.211 1.523 0 .727.5 1.359 1.211 1.523l20.313 4.688.352.039.352-.039zm-6.602 4.73l-13.008 3.004c-.359.078-.711.117-1.055.117s-.695-.039-1.035-.113l-13.027-3.008v12.496c0 1.727 4.688 4.688 14.063 4.688s14.063-2.961 14.063-4.688zm7.305-1.684l-4.18.961v13.219c0 4.145-4.746 7.813-17.188 7.813-12.441 0-17.188-3.668-17.188-7.813v-13.219l-4.18-.961c-2.137-.496-3.633-2.375-3.633-4.57 0-2.195 1.492-4.074 3.633-4.57l20.313-4.688c.363-.078.711-.117 1.055-.117s.691.039 1.031.113l20.336 4.691c2.137.496 3.633 2.375 3.633 4.57 0 2.195-1.496 4.074-3.633 4.57m-1.055 3.242v14.063c0 .863.699 1.563 1.563 1.563.863 0 1.563-.699 1.563-1.563v-14.063c0-.863-.699-1.563-1.563-1.563-.863 0-1.563.699-1.563 1.563m4.688 23.438c0 1.727-1.398 3.125-3.125 3.125s-3.125-1.398-3.125-3.125c0-1.723 1.398-6.25 3.125-6.25s3.125 4.527 3.125 6.25" data-fill="rgb(19.999695%,19.999695%,19.999695%)"/></svg>