<?xml version="1.0" encoding="utf-8"?>
<!-- Generator: Adobe Illustrator 17.0.0, SVG Export Plug-In . SVG Version: 6.00 Build 0)  -->
<!DOCTYPE svg PUBLIC "-//W3C//DTD SVG 1.1//EN" "http://www.w3.org/Graphics/SVG/1.1/DTD/svg11.dtd">
<svg version="1.1" id="Слой_1" xmlns="http://www.w3.org/2000/svg" xmlns:xlink="http://www.w3.org/1999/xlink" x="0px" y="0px"
	 width="100px" height="100px" viewBox="0 0 100 100" enable-background="new 0 0 100 100" xml:space="preserve">
<g>
	<circle fill="#2FB492" cx="50" cy="50" r="49"/>
</g>
<g>
	<path fill="#63D3B3" d="M1.516,42.919C1.181,45.232,1,47.594,1,50c0,0.216,0.013,0.428,0.016,0.643l54.168,48.081
		c2.601-0.274,5.138-0.757,7.601-1.421L1.516,42.919z"/>
	<path fill="#63D3B3" d="M19.954,11.307c-1.973,1.534-3.823,3.215-5.539,5.027l73.242,65.012c1.594-1.913,3.046-3.949,4.338-6.093
		L19.954,11.307z"/>
	<path fill="#63D3B3" d="M8.297,24.275c-1.527,2.47-2.833,5.087-3.908,7.823L73.192,93.17c2.58-1.389,5.014-3.009,7.291-4.82
		L8.297,24.275z"/>
	<path fill="#63D3B3" d="M36.965,2.767c-2.825,0.778-5.552,1.791-8.147,3.037l67.57,59.978c0.924-2.715,1.626-5.532,2.063-8.438
		L36.965,2.767z"/>
	<path fill="#63D3B3" d="M3.873,66.55c5.582,15.556,18.808,27.457,35.149,31.2L3.873,66.55z"/>
	<path fill="#63D3B3" d="M61.884,2.459c-3.794-0.945-7.759-1.455-11.845-1.458l48.6,43.139c-0.481-4.032-1.448-7.913-2.847-11.583
		L61.884,2.459z"/>
</g>
<path fill="#CED55A" stroke="#E7ECA1" stroke-width="4" stroke-miterlimit="10" d="M94,85"/>
<path fill="#CED55A" stroke="#E7ECA1" stroke-width="4" stroke-miterlimit="10" d="M14,4"/>
<circle fill="#DDE5EB" cx="49.644" cy="49.925" r="21.618"/>
<path fill="#C1CCD3" d="M64.93,34.638c8.443,8.443,8.443,22.131,0,30.573c-8.443,8.443-22.131,8.443-30.573,0l0,0
	C58.848,65.246,64.968,59.045,64.93,34.638L64.93,34.638z"/>
<path fill="#444444" d="M74.06,49.933c0-13.48-10.928-24.408-24.408-24.408c-13.48,0-24.408,10.928-24.408,24.408
	s10.928,24.408,24.408,24.408c5.734,0,10.996-1.991,15.162-5.301l2.883,2.883l3.945-3.945l-2.883-2.883
	C72.068,60.929,74.06,55.667,74.06,49.933z M29.428,49.933c0-11.151,9.072-20.224,20.224-20.224
	c11.151,0,20.224,9.072,20.224,20.224c0,11.151-9.072,20.224-20.224,20.224C38.5,70.157,29.428,61.084,29.428,49.933z"/>
<g>
	<path fill="#403730" d="M84.364,85L69.399,69.95l0.981-1.042l-0.012-0.012l-4.931,4.931c-1.089,1.089-1.089,2.856,0,3.945
		l12.493,12.493C80.202,88.637,82.406,86.984,84.364,85z"/>
	<path fill="#544A42" d="M73.262,65.847l-2.882,3.061l14.996,14.996c1.597-1.715,3.145-3.471,4.485-5.402L77.207,65.847
		C76.118,64.758,74.352,64.758,73.262,65.847z"/>
	<path fill="#544A42" d="M69.399,69.95L84.364,85c0.335-0.34,1.019-1.074,1.344-1.423L70.896,68.36L69.399,69.95z"/>
</g>
</svg>
