<?xml version="1.0" encoding="utf-8"?>
<!-- Generator: Adobe Illustrator 17.1.0, SVG Export Plug-In . SVG Version: 6.00 Build 0)  -->
<!DOCTYPE svg PUBLIC "-//W3C//DTD SVG 1.1//EN" "http://www.w3.org/Graphics/SVG/1.1/DTD/svg11.dtd">
<svg version="1.1" id="Capa_1" xmlns="http://www.w3.org/2000/svg" xmlns:xlink="http://www.w3.org/1999/xlink" x="0px" y="0px"
	 viewBox="0 0 32 32" enable-background="new 0 0 32 32" xml:space="preserve">
<g>
	<g id="Padlock">
		<g>
			<path d="M24,14V8c0-4.4-3.6-8-8-8S8,3.6,8,8v6c-1.7,0-3,1.3-3,3v12c0,1.7,1.3,3,3,3h16c1.7,0,3-1.3,3-3V17C27,15.3,25.7,14,24,14
				z M10,8c0-3.3,2.7-6,6-6s6,2.7,6,6v6H10V8z M25,29c0,0.6-0.4,1-1,1H8c-0.6,0-1-0.4-1-1V17c0-0.6,0.4-1,1-1h16c0.6,0,1,0.4,1,1V29
				z M17,22.3V20c0-0.6-0.4-1-1-1s-1,0.4-1,1v2.3c-0.6,0.3-1,1-1,1.7c0,1.1,0.9,2,2,2s2-0.9,2-2C18,23.3,17.6,22.6,17,22.3z"/>
		</g>
	</g>
</g>
</svg>
