<svg id="Слой_1" data-name="Слой 1" xmlns="http://www.w3.org/2000/svg" viewBox="0 0 110 110"><defs><style>.cls-1{fill:#36b493;}.cls-2{fill:#e2e4e5;}.cls-3{fill:#fff;}.cls-4{fill:#e7565b;}.cls-5{fill:#ff8f8f;}</style></defs><title>Безымянный-2</title><circle class="cls-1" cx="55" cy="55" r="55"/><path class="cls-2" d="M83.49,66.5A12,12,0,0,0,71.9,63.4L50.17,41.67A14,14,0,0,0,32.3,23.81L42.64,34.16v5.66l-2.83,2.83H34.16L23.81,32.3A14,14,0,0,0,41.69,50.16L63.42,71.89A12,12,0,1,0,83.49,66.5ZM76.87,82l-7-1.87-1.87-7,5.1-5.1,7,1.87,1.87,7Z"/><path class="cls-3" d="M71.9,63.4L50.17,41.67A14,14,0,0,0,32.3,23.81L42.64,34.16v5.66l-1.36,1.36L70.64,70.52l2.5-2.5,7,1.87,1.87,7-2.5,2.5,4.07,4.07A12,12,0,0,0,71.9,63.4Z"/><path class="cls-4" d="M53.79,68.08a3,3,0,0,0,.78-2.9,3,3,0,0,1,.78-2.9l2.83-2.83a1,1,0,0,0,0-1.41l-5.66-5.66a1,1,0,0,0-1.41,0l-2.83,2.83a3,3,0,0,1-2.9.78,3,3,0,0,0-2.9.78L24.23,75C20.69,78.55,32,89.86,35.54,86.32Z"/><polygon class="cls-2" points="83.19 24.54 71.17 30.9 70.46 35.85 53.22 53.09 57.46 57.33 74.7 40.09 79.58 39.46 86.09 27.45 83.19 24.54"/><polygon class="cls-3" points="83.19 24.54 71.17 30.9 70.46 35.85 53.22 53.09 55.57 55.43 84.82 26.18 83.19 24.54"/><path class="cls-5" d="M52.51,52.38a1,1,0,0,0-1.41,0l-2.83,2.83a3,3,0,0,1-2.9.78,3,3,0,0,0-2.9.78L24.23,75c-1.81,1.81.28,5.67,3.23,8.53l28.1-28.1Z"/></svg>