<svg id="Слой_1" data-name="Слой 1" xmlns="http://www.w3.org/2000/svg" viewBox="0 0 110 110"><defs><style>.cls-1{fill:#fabc3d;}.cls-2{fill:#3e3e3f;}.cls-3{fill:#5b5c5f;}.cls-4{fill:#fff;}.cls-5{fill:#cfd3d4;}.cls-6{fill:#40c9e7;}.cls-7{fill:#6fdaf1;}</style></defs><title>Безымянный-2</title><circle class="cls-1" cx="55" cy="55" r="55"/><path class="cls-2" d="M34,60c10,0,12,9,29,9,0-5,4-9,11-9s13,9,13,9c0-9.12-3-27-21.54-27H53.71A4,4,0,0,0,50,44.51L47,52H31c-3.86,0-5,4-7,17C24.91,68.74,32.9,60,34,60Z"/><path class="cls-3" d="M34,60c10,0,12,9,29,9,0-5,4-9,11-9,0.25,0,.49,0,0.73.06C71,58,59.78,56,30,56a28.8,28.8,0,0,0-3.39.19A63.69,63.69,0,0,0,24.48,66,10.4,10.4,0,0,1,34,60Z"/><path class="cls-4" d="M23.22,69.68a2,2,0,0,0,2,2.32H84a3,3,0,0,0,3-3s-6-9-13-9-11,4-11,9c-17,0-19-9-29-9C26.82,60,23.79,66.19,23.22,69.68Z"/><circle class="cls-2" cx="34" cy="70" r="6"/><circle class="cls-5" cx="34" cy="70" r="2"/><circle class="cls-2" cx="73" cy="70" r="6"/><circle class="cls-5" cx="73" cy="70" r="2"/><path class="cls-6" d="M67,45.08C66.47,45,65.94,45,65.4,45H53.75a1,1,0,0,0-1,.73l-1.43,5a1,1,0,0,0,1,1.27H67V45.08Z"/><path class="cls-6" d="M77.63,50.32A16.7,16.7,0,0,0,71,46v6h5.89A1,1,0,0,0,77.63,50.32Z"/><path class="cls-2" d="M26.2,54h-2v6h2A3,3,0,0,0,26.2,54Z"/><rect class="cls-3" x="23.2" y="54" width="1" height="6"/><path class="cls-7" d="M53.75,45a1,1,0,0,0-1,.73l-1.43,5a1,1,0,0,0,1,1.27H54.4l7-7H53.75Z"/></svg>