<svg id="Слой_1" data-name="Слой 1" xmlns="http://www.w3.org/2000/svg" viewBox="0 0 110 110"><defs><style>.cls-1{fill:#ccd64e;}.cls-2{fill:#e2e4e5;}.cls-3{fill:#fff;}.cls-4{fill:#df2c2c;}.cls-5{fill:#cfd3d4;}.cls-6{fill:#fa5655;}.cls-7{fill:#6fdaf1;}.cls-8{fill:#40c9e7;}.cls-9{fill:#099686;}.cls-10{fill:#9c6144;}.cls-11{fill:#af7653;}</style></defs><title>Безымянный-2</title><circle class="cls-1" cx="55" cy="55" r="55"/><path class="cls-2" d="M87,87H23v0a4,4,0,0,1,4-4H83a4,4,0,0,1,4,4v0Z"/><rect class="cls-3" x="27" y="47" width="56" height="36"/><path class="cls-4" d="M32.14,47a4.31,4.31,0,0,1-4.57,4A4.31,4.31,0,0,1,23,47h9.14Z"/><path class="cls-5" d="M41.29,47a4.31,4.31,0,0,1-4.57,4,4.31,4.31,0,0,1-4.57-4h9.14Z"/><path class="cls-4" d="M50.43,47a4.31,4.31,0,0,1-4.57,4,4.31,4.31,0,0,1-4.57-4h9.14Z"/><path class="cls-5" d="M59.57,47a4.61,4.61,0,0,1-9.14,0h9.14Z"/><path class="cls-5" d="M77.86,47a4.61,4.61,0,0,1-9.14,0h9.14Z"/><path class="cls-4" d="M68.71,47a4.61,4.61,0,0,1-9.14,0h9.14Z"/><path class="cls-4" d="M87,47a4.61,4.61,0,0,1-9.14,0H87Z"/><polygon class="cls-6" points="23 47 32.14 47 40.14 27 32.14 27 23 47"/><polygon class="cls-3" points="32.14 47 41.29 47 47 27 40.14 27 32.14 47"/><polygon class="cls-6" points="41.29 47 50.43 47 53.86 27 47 27 41.29 47"/><polygon class="cls-3" points="50.43 47 59.57 47 59.57 27 53.86 27 50.43 47"/><polygon class="cls-6" points="87 47 77.86 47 72.14 27 79 27 87 47"/><polygon class="cls-3" points="77.86 47 68.71 47 65.29 27 72.14 27 77.86 47"/><polygon class="cls-6" points="68.71 47 59.57 47 59.57 27 65.29 27 68.71 47"/><rect class="cls-7" x="31" y="55" width="28" height="16"/><polygon class="cls-8" points="59 71 31 71 59 55 59 71"/><rect class="cls-8" x="65" y="55" width="14" height="13"/><rect class="cls-8" x="65" y="71" width="14" height="12"/><path class="cls-9" d="M58,76c0.26-3.26-3.41-5.62-7.41-5.62a8.8,8.8,0,0,0-5.76,2,3.29,3.29,0,0,0-2.81-2,3.21,3.21,0,0,0-2.68,1.75,5.1,5.1,0,0,0-9.79,1,1.9,1.9,0,0,0-1.24-.49c-1.35,0-2.41,1.54-2.26,3.35H58Z"/><rect class="cls-10" x="26" y="76" width="32" height="7"/><rect class="cls-11" x="26" y="76" width="32" height="2"/></svg>