<svg xmlns="http://www.w3.org/2000/svg" width="10pt" height="10pt" viewBox="0 0 10 10"><path d="M3.785 3.785H.765a3.414 3.414 0 0 1 3.02-3.02zm.746.37V.372c0-.214-.178-.37-.374-.37A4.16 4.16 0 0 0 0 4.156c0 .196.176.375.37.375h3.786a.39.39 0 0 0 .375-.374"/><path d="M5.332 9.137c-1.94 0-3.566-1.39-3.78-3.176h3.98c.234 0 .43-.194.43-.43V1.55c1.765.235 3.175 1.864 3.175 3.782a3.81 3.81 0 0 1-3.805 3.805m.2-8.47a.434.434 0 0 0-.434.43v4h-4a.434.434 0 0 0-.43.434C.668 8 2.766 10 5.332 10A4.678 4.678 0 0 0 10 5.332C10 2.805 7.94.668 5.53.668"/></svg>