<?xml version="1.0" encoding="utf-8"?>
<!-- Generator: Adobe Illustrator 17.1.0, SVG Export Plug-In . SVG Version: 6.00 Build 0)  -->
<!DOCTYPE svg PUBLIC "-//W3C//DTD SVG 1.1//EN" "http://www.w3.org/Graphics/SVG/1.1/DTD/svg11.dtd">
<svg version="1.1" id="Capa_1" xmlns="http://www.w3.org/2000/svg" xmlns:xlink="http://www.w3.org/1999/xlink" x="0px" y="0px"
	 viewBox="0 0 13 10" enable-background="new 0 0 13 10" xml:space="preserve">
<g>
	<g>
		<path d="M2.1,2.7c0.2,0.2,0.5,0.2,0.6,0c0.2-0.2,0.2-0.5,0-0.6L2.1,1.5c-0.2-0.2-0.5-0.2-0.6,0c-0.2,0.2-0.2,0.5,0,0.6L2.1,2.7z"
			/>
		<path d="M9.5,4.5H8.6C8.4,4.5,8.2,4.7,8.2,5c0,0.3,0.2,0.5,0.5,0.5h0.9C9.8,5.5,10,5.3,10,5C10,4.7,9.8,4.5,9.5,4.5z"/>
		<path d="M1.8,5c0-0.3-0.2-0.5-0.5-0.5H0.5C0.2,4.5,0,4.7,0,5c0,0.3,0.2,0.5,0.5,0.5h0.9C1.6,5.5,1.8,5.3,1.8,5z"/>
		<path d="M5,2.3C3.5,2.3,2.3,3.5,2.3,5S3.5,7.7,5,7.7c1.5,0,2.7-1.2,2.7-2.7S6.5,2.3,5,2.3z M5,6.8C4,6.8,3.2,6,3.2,5S4,3.2,5,3.2
			S6.8,4,6.8,5S6,6.8,5,6.8z"/>
		<path d="M2.1,7.3L1.5,7.9c-0.2,0.2-0.2,0.5,0,0.6c0.2,0.2,0.5,0.2,0.6,0l0.6-0.6c0.2-0.2,0.2-0.5,0-0.6C2.6,7.1,2.3,7.1,2.1,7.3z"
			/>
		<path d="M7.9,2.7l0.6-0.6c0.2-0.2,0.2-0.5,0-0.6c-0.2-0.2-0.5-0.2-0.6,0L7.3,2.1c-0.2,0.2-0.2,0.5,0,0.6C7.4,2.9,7.7,2.9,7.9,2.7z
			"/>
		<path d="M5,8.2c-0.3,0-0.5,0.2-0.5,0.5v0.9C4.5,9.8,4.7,10,5,10c0.3,0,0.5-0.2,0.5-0.5V8.6C5.5,8.4,5.3,8.2,5,8.2z"/>
		<path d="M7.9,7.3c-0.2-0.2-0.5-0.2-0.6,0c-0.2,0.2-0.2,0.5,0,0.6l0.6,0.6c0.2,0.2,0.5,0.2,0.6,0c0.2-0.2,0.2-0.5,0-0.6L7.9,7.3z"
			/>
		<path d="M5,1.8c0.3,0,0.5-0.2,0.5-0.5V0.5C5.5,0.2,5.3,0,5,0C4.7,0,4.5,0.2,4.5,0.5v0.9C4.5,1.6,4.7,1.8,5,1.8z"/>
	</g>
</g>
<g>
	<path d="M12,9.5c-0.3,0-0.5-0.2-0.5-0.5V1c0-0.3,0.2-0.5,0.5-0.5s0.5,0.2,0.5,0.5v8C12.5,9.3,12.3,9.5,12,9.5z"/>
</g>
</svg>
