<?xml version="1.0" encoding="utf-8"?>
<!-- Generator: Adobe Illustrator 17.0.0, SVG Export Plug-In . SVG Version: 6.00 Build 0)  -->
<!DOCTYPE svg PUBLIC "-//W3C//DTD SVG 1.1//EN" "http://www.w3.org/Graphics/SVG/1.1/DTD/svg11.dtd">
<svg version="1.1" id="Слой_1" xmlns="http://www.w3.org/2000/svg" xmlns:xlink="http://www.w3.org/1999/xlink" x="0px" y="0px"
	 width="50px" height="50px" viewBox="0 0 50 50" enable-background="new 0 0 50 50" xml:space="preserve">
<circle fill="#F98D8A" cx="25" cy="25" r="25"/>
<path fill="#FFFFFF" d="M36,24.75c0.375-0.5,0.75-1,1-1.25c1.75-2.25,2.5-3.75,2.25-4.375L39.125,19c0-0.125-0.25-0.125-0.5-0.25
	s-0.5-0.125-1,0h-4.25c-0.125,0-0.25,0-0.25,0c-0.125,0-0.125,0-0.25,0c0,0,0,0-0.125,0l0,0l-0.125,0.125
	C32.625,19,32.5,19,32.5,19.125c-0.5,1.25-1,2.25-1.625,3.375c-0.375,0.625-0.75,1.125-1,1.625c-0.25,0.5-0.5,0.75-0.75,1
	c-0.25,0.25-0.375,0.375-0.5,0.5c-0.125,0.125-0.25,0.125-0.375,0.125c-0.125,0-0.125,0-0.25,0c-0.125-0.125-0.25-0.25-0.375-0.375
	C27.5,25.25,27.5,25,27.5,24.75c0-0.25,0-0.375,0-0.625c0-0.125,0-0.375,0-0.75c0-0.25,0-0.5,0-0.625c0-0.375,0-0.75,0-1.25
	c0-0.375,0-0.75,0-1c0-0.25,0-0.5,0-0.75s0-0.5,0-0.625c0-0.125-0.125-0.375-0.125-0.5c-0.125-0.125-0.125-0.25-0.25-0.375
	c-0.125-0.125-0.25-0.125-0.5-0.25c-0.5-0.125-1.125-0.125-2-0.25c-1.875,0-3,0.125-3.5,0.375c-0.25,0.125-0.375,0.25-0.5,0.5
	C20.5,18.875,20.375,19,20.5,19c0.625,0.125,1,0.25,1.25,0.625l0.125,0.125C22,19.875,22,20.125,22.125,20.375
	C22.25,20.75,22.25,21,22.25,21.5c0,0.75,0,1.375,0,1.875c0,0.5-0.125,0.875-0.125,1.25c0,0.25-0.125,0.5-0.25,0.75
	c-0.125,0.125-0.125,0.25-0.125,0.375c0,0,0,0.125-0.125,0.125S21.375,26,21.25,26c-0.125,0-0.25-0.125-0.5-0.25
	c-0.25-0.125-0.375-0.375-0.625-0.625c-0.25-0.25-0.5-0.625-0.75-1c-0.25-0.375-0.5-1-0.875-1.5l-0.25-0.375
	C18.125,22,17.875,21.625,17.625,21c-0.25-0.5-0.5-1-0.625-1.5c-0.125-0.25-0.25-0.375-0.375-0.5H16.5c0,0-0.125-0.125-0.25-0.125
	c-0.125,0-0.25-0.125-0.375-0.125h-4c-0.375,0-0.75,0.125-0.875,0.25v0.125c0,0,0,0.125,0,0.25c0,0.125,0,0.25,0.125,0.375
	c0.625,1.375,1.25,2.75,1.875,4c0.75,1.25,1.25,2.375,1.75,3.125c0.5,0.75,1,1.5,1.625,2.25c0.5,0.75,0.875,1.125,1,1.375
	c0.125,0.25,0.25,0.375,0.375,0.5l0.375,0.375c0.25,0.25,0.625,0.5,1,0.875c0.5,0.375,1,0.625,1.5,1c0.5,0.375,1.25,0.625,2,0.75
	c0.75,0.25,1.5,0.25,2.125,0.25h1.75c0.375,0,0.625-0.125,0.75-0.375V33.75c0,0,0.125-0.125,0.125-0.25s0-0.25,0-0.375
	c0-0.375,0-0.75,0.125-1.125c0.125-0.375,0.125-0.625,0.25-0.75s0.25-0.375,0.375-0.375c0.125-0.125,0.25-0.25,0.25-0.25H28.5
	c0.25-0.125,0.5,0,0.875,0.25c0.375,0.25,0.625,0.5,0.875,0.875c0.25,0.375,0.625,0.75,1,1.125c0.375,0.375,0.75,0.75,1,1
	l0.25-0.125c0.25,0.125,0.5,0.25,0.75,0.375c0.375,0.125,0.625,0.125,0.875,0.125h3.75c0.375,0,0.625,0,0.875-0.125
	C39,34,39.125,33.875,39.125,33.75s0-0.375,0-0.5S39,32.875,39,32.875c0-0.125-0.125-0.125-0.125-0.125
	c-0.5-0.875-1.375-2-2.875-3.25l0,0l0,0l0,0l0,0c-0.625-0.625-1-1-1.25-1.25C34.5,27.875,34.375,27.5,34.5,27
	C34.75,26.375,35.25,25.75,36,24.75z"/>
</svg>
