<?xml version="1.0" encoding="utf-8"?>
<!-- Generator: Adobe Illustrator 17.1.0, SVG Export Plug-In . SVG Version: 6.00 Build 0)  -->
<!DOCTYPE svg PUBLIC "-//W3C//DTD SVG 1.1//EN" "http://www.w3.org/Graphics/SVG/1.1/DTD/svg11.dtd">
<svg version="1.1" id="Слой_1" xmlns="http://www.w3.org/2000/svg" xmlns:xlink="http://www.w3.org/1999/xlink" x="0px" y="0px"
	 viewBox="0 0 20 10" enable-background="new 0 0 20 10" xml:space="preserve">
<path d="M19.7,4.3l-4-4c-0.4-0.4-1-0.4-1.4,0s-0.4,1,0,1.4L16.6,4H3.4l2.3-2.3c0.4-0.4,0.4-1,0-1.4s-1-0.4-1.4,0l-4,4
	c-0.4,0.4-0.4,1,0,1.4l4,4C4.5,9.9,4.7,10,5,10s0.5-0.1,0.7-0.3c0.4-0.4,0.4-1,0-1.4L3.4,6h13.2l-2.3,2.3c-0.4,0.4-0.4,1,0,1.4
	C14.5,9.9,14.7,10,15,10s0.5-0.1,0.7-0.3l4-4C20.1,5.3,20.1,4.7,19.7,4.3z"/>
</svg>
